<?xml version="1.0" encoding="UTF-8"?> <svg xmlns="http://www.w3.org/2000/svg" viewBox="0 0 408 320"><defs><style>.cls-1{fill:none;}.cls-2{fill:gray;}.cls-16,.cls-3{fill:#333;}.cls-4{fill:#595959;}.cls-5{fill:#cfd1d2;}.cls-14,.cls-6{fill:#34a451;}.cls-7{fill:#9d9d9d;}.cls-8{fill:#fff;}.cls-9{fill:#cbcbcb;}.cls-10{fill:#d9d9d9;}.cls-11{fill:#757575;}.cls-12{fill:#9e9e9e;}.cls-13{fill:#cdcdcd;}.cls-14,.cls-16{fill-rule:evenodd;}.cls-15{fill:#dff5e3;}.cls-17{fill:#a6e2b4;}</style></defs><title>diversity</title><g id="conteiner_box" data-name="conteiner box"><rect class="cls-1" width="408" height="320"></rect></g><g id="character_7" data-name="character 7"><path class="cls-2" d="M185.89,127c5.12-1.09,10.37-8.7,10.53-14.35a4.87,4.87,0,0,0,0-9.43h0V98.78A15.82,15.82,0,0,0,180.61,83h-1.22a15.82,15.82,0,0,0-15.82,15.82v4.29a4.87,4.87,0,0,0,0,9.66,14.86,14.86,0,0,0,7.89,12.68S175.72,129.14,185.89,127Z"></path><path class="cls-3" d="M196.06,114l-.46-1.94a3.87,3.87,0,0,0,.06-7.51l.5-1.94a5.87,5.87,0,0,1-.1,11.39Z"></path><path class="cls-4" d="M155.14,193.13l-5.33,109.63,27.15.41,2.52-72.94,6.13,72.94h26l-8.83-111.68c.29-6.35-3.88-4.34-10.24-4.27Z"></path><path class="cls-5" d="M215.73,147.83c0-8.11-4.13-16.13-11.91-17.3a234.13,234.13,0,0,0-33.16-1.69c-3.9.16-15.52,1.78-15.52,1.78-7.43,1.86-11.5,9.24-11.5,17.21l-2.37,44.8,13.87.5-1.22,25.16L205,220l-2.2-29.72,16.4-.41Z"></path><path class="cls-6" d="M179.56,161.18a130.93,130.93,0,0,1-23.9-2,1,1,0,0,1-.77-1.19,1,1,0,0,1,1.18-.77,140.54,140.54,0,0,0,47.09,0,1,1,0,0,1,1.16.82,1,1,0,0,1-.82,1.15A141,141,0,0,1,179.56,161.18Z"></path><path class="cls-6" d="M179.56,167.26a130.32,130.32,0,0,1-23.9-2,1,1,0,0,1-.77-1.18,1,1,0,0,1,1.18-.78,140.06,140.06,0,0,0,47.09,0,1,1,0,1,1,.34,2A141,141,0,0,1,179.56,167.26Z"></path><path class="cls-7" d="M187.61,131.58a74.71,74.71,0,0,1,8.75.7,26.24,26.24,0,0,1,10.31,3.41,15.89,15.89,0,0,1,3.22,2.49c2.06,2.17,5.64,8.6,5.64,8.6s.07-11.74-8.15-15.52c-4.64-2.14-14-2.86-19.64-2.8Z"></path><path class="cls-3" d="M218,185.74a1,1,0,0,1-1-1c0-.29-1.57-29.62-2-35.7-.79-10.54-3.72-15.37-10.46-17.26-4.1-1.15-13.83-2.39-13.93-2.4a1,1,0,1,1,.25-2,143.53,143.53,0,0,1,14.22,2.45c7.61,2.13,11.06,7.65,11.92,19,.46,6.1,2,35.45,2,35.75a1,1,0,0,1-.95,1.05Z"></path><path class="cls-2" d="M185.8,136.78a8.81,8.81,0,0,1-12.77-1,4.23,4.23,0,0,1-1.05-2.56v-7s5.7,1.54,7.78,1.54c1.88,0,8.05-1.88,8.05-1.88v7A4.78,4.78,0,0,1,185.8,136.78Z"></path><path class="cls-7" d="M171.75,131.58a72.21,72.21,0,0,0-11.33,1.14,19.1,19.1,0,0,0-16.59,14.06,15.78,15.78,0,0,1,.89-8.07,14.75,14.75,0,0,1,7.27-7.45c4.64-2.14,14-2.86,19.63-2.8Z"></path><path class="cls-4" d="M188,125.93a9.25,9.25,0,0,1-8.33,4.49,10.23,10.23,0,0,1-8.71-4.49s6.11,1.93,8.37,2C181.43,128,188,125.93,188,125.93Z"></path><path class="cls-3" d="M155.14,193.13a1,1,0,0,1-1-1V146.3a1,1,0,0,1,2,0v45.83A1,1,0,0,1,155.14,193.13Z"></path><path class="cls-3" d="M203.82,185.7a1,1,0,0,1-1-1V146.3a1,1,0,0,1,2,0v38.4A1,1,0,0,1,203.82,185.7Z"></path><path class="cls-3" d="M179.56,139.08A10.88,10.88,0,0,1,172,136l-.19-.18a4.15,4.15,0,0,1-1.27-3v-6.43a1,1,0,0,1,2,0v6.43a2.09,2.09,0,0,0,.65,1.53l.19.19a9,9,0,0,0,12.68-.29,1.38,1.38,0,0,0,.38-1v-7a1,1,0,1,1,2,0v7a3.36,3.36,0,0,1-.94,2.35,10.85,10.85,0,0,1-7.68,3.39Z"></path><path class="cls-3" d="M180.09,128.76h-1.22c-9.43,0-16.82-7.12-16.82-16.21V99.16a16.83,16.83,0,0,1,16.82-16.82h1.22a16.84,16.84,0,0,1,16.82,16.82v13.39C196.91,121.64,189.52,128.76,180.09,128.76Zm-1.22-44.42a14.84,14.84,0,0,0-14.82,14.82v13.39c0,8,6.51,14.21,14.82,14.21h1.22c8.31,0,14.82-6.25,14.82-14.21V99.16a14.84,14.84,0,0,0-14.82-14.82Z"></path><path class="cls-3" d="M163.55,114.57a5.87,5.87,0,0,1-.1-11.66l.25,2a3.87,3.87,0,0,0,.07,7.68Z"></path><path class="cls-3" d="M196.06,114l-.46-1.94a3.87,3.87,0,0,0,.06-7.51l.5-1.94a5.87,5.87,0,0,1-.1,11.39Z"></path><path class="cls-3" d="M148.91,134.82a1,1,0,0,1-.75-.34,1,1,0,0,1,.08-1.41,15,15,0,0,1,6.06-3.17,103.9,103.9,0,0,1,11.28-2.11,1,1,0,0,1,.26,2,100.7,100.7,0,0,0-11,2.05,12.88,12.88,0,0,0-5.27,2.74A1,1,0,0,1,148.91,134.82Z"></path><path class="cls-3" d="M141.36,185.74h-.05a1,1,0,0,1-.95-1.05c0-.3,1.57-29.65,2-35.75a1,1,0,0,1,1.07-.93,1,1,0,0,1,.92,1.08c-.46,6.08-2,35.41-2,35.7A1,1,0,0,1,141.36,185.74Z"></path><path class="cls-3" d="M197.17,90.47a17.61,17.61,0,0,0-16.92-12.22c-7.61,0-15.25,4.69-17.73,11.25a16.73,16.73,0,0,0-1.26,10.71,18.7,18.7,0,0,0,1.57,4.19s1-4.75,2.82-7.15c2.46-3.18,7.09-3.18,9.13-3.18,3.22,0,7.7,0,10.85,0s6.85,1.14,8.09,4.16a21.67,21.67,0,0,1,1.77,6.59,15,15,0,0,0,2.44-6.32A17.16,17.16,0,0,0,197.17,90.47Z"></path><path class="cls-3" d="M174.42,105.06a1,1,0,0,1-.65-.23,1.68,1.68,0,0,0-2.14,0,1,1,0,1,1-1.2-1.59,3.7,3.7,0,0,1,4.64,0,1,1,0,0,1,.1,1.41A.94.94,0,0,1,174.42,105.06Z"></path><path class="cls-3" d="M187.67,104.82a1,1,0,0,1-.66-.24,1.76,1.76,0,0,0-2.24-.09,1,1,0,1,1-1.2-1.6,3.77,3.77,0,0,1,4.76.18,1,1,0,0,1-.66,1.75Z"></path><rect class="cls-3" x="171.66" y="107.44" width="2.28" height="4.56" rx="1.14"></rect><rect class="cls-3" x="184.47" y="107.44" width="2.28" height="4.56" rx="1.14" transform="translate(371.22 219.43) rotate(-180)"></rect><path class="cls-3" d="M179.15,116.91a2.12,2.12,0,0,1-1.64-.68A2.53,2.53,0,0,1,177,114l.85-3.63a1,1,0,1,1,2,.46l-.85,3.62a.63.63,0,0,0,0,.42h0a.77.77,0,0,0,.23,0,1,1,0,0,1,.2,2Zm-.14-2h0Z"></path><path class="cls-3" d="M178.94,121.73a5.75,5.75,0,0,1-4.21-1.49,1,1,0,0,1,0-1.41,1,1,0,0,1,1.42,0c1.34,1.41,5.13.9,6.49-.18a1,1,0,0,1,1.4.16,1,1,0,0,1-.16,1.41A8.52,8.52,0,0,1,178.94,121.73Z"></path><path class="cls-3" d="M178,144.36c-6.52,0-9.8-5.55-9.84-5.61a1,1,0,1,1,1.73-1,9.68,9.68,0,0,0,10.34,4.36,1,1,0,1,1,.43,1.95A12.18,12.18,0,0,1,178,144.36Z"></path><path class="cls-3" d="M180.25,80.25a15.72,15.72,0,0,1,15,10.81l0,.09a15,15,0,0,1,.66,7l0,.16c-.11-.3-.23-.6-.35-.91-1.38-3.37-5.09-5.39-9.94-5.4h-1l-7.6,0h-2.25c-2.29,0-7.63,0-10.67,4a11.07,11.07,0,0,0-1.13,1.83,15.16,15.16,0,0,1,1.41-7.56.36.36,0,0,1,0-.09c2.15-5.68,9-10,15.86-10m0-2c-7.61,0-15.25,4.69-17.73,11.25a16.73,16.73,0,0,0-1.26,10.71,18.7,18.7,0,0,0,1.57,4.19s1-4.75,2.82-7.15c2.46-3.18,7.09-3.18,9.13-3.18,2.87,0,6.76,0,9.81,0h1c3.26,0,6.85,1.14,8.09,4.16a21.67,21.67,0,0,1,1.77,6.59,15,15,0,0,0,2.44-6.32,17.16,17.16,0,0,0-.76-8,17.61,17.61,0,0,0-16.92-12.22Z"></path></g><g id="character_6" data-name="character 6"><path class="cls-5" d="M214.84,130.69c-5.19.21-6.33-.67-13,1.86-9.39,3.61-11.07,13.4-11.56,15.13,0,0,7.48,34.5,6.77,52.49-.15,3.89.25,22.33.25,22.33l70.25,2,1-69.81s.5-4-2-11.73c-1.68-5.22-6.4-10.74-17.68-12.14"></path><path class="cls-7" d="M240.5,133a36.67,36.67,0,0,1,9.88,1.15c16.81,5.15,17.44,18,17.44,18s1.31-13.14-8.51-17.66a43.44,43.44,0,0,0-18.71-3.57Z"></path><path class="cls-8" d="M240.18,130.72l-.13-20.25s-3.27,16.07-15.65,16.72c-4.75.25-4.9.06-4.87,0l0,3.4-5.74.16s.62,7.92,8.37,9.75,15.48.44,20.34-4.08a7.7,7.7,0,0,0,2.2-5.7Z"></path><path class="cls-8" d="M245.37,110.35c.71-1.46,1.18-4.93-.87-6.69a3.83,3.83,0,0,0-1.76-.91,3.53,3.53,0,0,0-3.4,1c-1.69-3.07-13-11.59-13.5-13.51-2.4,6.73-17.67,2.25-16.78,12,0,3.1,0,5.84,0,6v0c0,5.19,1,10.21,3.16,14,2.24,3.4,5.84,5.43,11.35,5.4,7.48,0,13.24-6.53,15.34-13.36a4.88,4.88,0,0,0,1.46,0C243.34,114.23,244.84,111.47,245.37,110.35Z"></path><path class="cls-3" d="M268.84,155.56a1,1,0,0,1-1-.88l-.85-7a17.74,17.74,0,0,0-1.95-6.08c-3-5.31-8.28-8.54-15.82-9.59l-.42-.06a28.31,28.31,0,0,0-3.48-.4,1,1,0,0,1,0-2,29.53,29.53,0,0,1,3.76.42l.42.06c8.19,1.15,14,4.71,17.29,10.6a19.58,19.58,0,0,1,2.18,6.79l.85,7a1,1,0,0,1-.87,1.11Z"></path><path class="cls-3" d="M185.84,170.13a.76.76,0,0,1-.21,0,1,1,0,0,1-.77-1.18c.18-.85,4.42-21,6.34-26.55,2.71-7.87,9.54-12.2,19.25-12.2h.44l6.36-.15h0a1,1,0,0,1,0,2l-6.38.15h-.47c-6.27,0-14.28,1.91-17.36,10.85-1.88,5.45-6.23,26.1-6.27,26.31A1,1,0,0,1,185.84,170.13Z"></path><path class="cls-9" d="M236.59,119.46s-1.74,8.15-8.19,10.1c-6.05,1.84-7.92,1.34-7.92,1.34l.12-3.5a12.18,12.18,0,0,0,5.24,0A19,19,0,0,0,236.59,119.46Z"></path><path class="cls-3" d="M219.83,134.59h0a1,1,0,0,1-1-1l0-6a1,1,0,0,1,1-1h0a1,1,0,0,1,1,1l0,6A1,1,0,0,1,219.83,134.59Z"></path><path class="cls-3" d="M240.33,134a1,1,0,0,1-1-1V115.15a1,1,0,0,1,2,0V133A1,1,0,0,1,240.33,134Z"></path><path class="cls-3" d="M222.32,128.88a11.85,11.85,0,0,1-7.83-2.68c-3.49-2.91-5.54-8-6.1-15.15,0-.14-.87-17.56-.86-17.85a1,1,0,0,1,1.06-1,1,1,0,0,1,.94,1c0,.58.81,16.93.85,17.65.51,6.49,2.37,11.25,5.39,13.76a10.45,10.45,0,0,0,8.1,2.13c5.15-.53,10-4.55,11.09-7.83a1,1,0,1,1,1.9.64c-1.33,3.92-6.6,8.54-12.79,9.18A15,15,0,0,1,222.32,128.88Z"></path><path class="cls-3" d="M251.72,171.49a1,1,0,0,1-1-1l0-22.33a1,1,0,0,1,1-1h0a1,1,0,0,1,1,1l0,22.33a1,1,0,0,1-1,1Z"></path><path class="cls-3" d="M228.64,142.41c-7.44,0-12.6-2.32-15.34-6.9a1,1,0,1,1,1.72-1c2.35,3.93,6.93,5.92,13.62,5.92,6.39,0,12.2-2.37,14.8-6a1,1,0,1,1,1.63,1.15C242.11,139.71,235.66,142.41,228.64,142.41Z"></path><path class="cls-3" d="M220.22,116h-2.88a1,1,0,0,1-1-1.14l.79-5.76a1,1,0,0,1,1.13-.85,1,1,0,0,1,.85,1.13l-.63,4.62h1.73a1,1,0,0,1,0,2Z"></path><path class="cls-3" d="M220.06,120.56a5.72,5.72,0,0,1-3.65-1.24,1,1,0,0,1,1.24-1.57c1.72,1.37,4.12.79,5.79-.2a1,1,0,1,1,1,1.72A8.88,8.88,0,0,1,220.06,120.56Z"></path><path class="cls-3" d="M212.11,103.83a1,1,0,0,1-.47-1.88,3.88,3.88,0,0,1,3.74-.23,1,1,0,0,1-1,1.74,2.09,2.09,0,0,0-1.82.26A1,1,0,0,1,212.11,103.83Z"></path><path class="cls-3" d="M226.54,103a1,1,0,0,1-.53-.15c-.09-.06-1.88-1.12-3.29-.08a1,1,0,1,1-1.18-1.62c2.52-1.84,5.4-.08,5.53,0a1,1,0,0,1-.53,1.85Z"></path><path class="cls-1" d="M241,102.9Z"></path><path class="cls-1" d="M241.92,102.77a4.29,4.29,0,0,1,.88.06A4.29,4.29,0,0,0,241.92,102.77Z"></path><path class="cls-1" d="M239.34,103.76a4.11,4.11,0,0,1,.8-.53A4.11,4.11,0,0,0,239.34,103.76Z"></path><path class="cls-1" d="M209.06,102.25h0c0,3.1,0,5.84,0,6v0C209.07,108.09,209.07,105.35,209.06,102.25Z"></path><path class="cls-3" d="M257,95.6c-.22-9.07-2.05-14.61-9.13-20.12-3.46-2.69-10-3-16.79-2.33-4.69-1.22-10.73-1.39-19.18,3.8-.62.38-16.75,9.85-5.76,23.57a18.81,18.81,0,0,0-1.47,12.36c1.13,4.75-.9,5.13-.75,9.43.32,9.18,15.94,6,15.94,6a12.23,12.23,0,0,1-7.61-6.12c-2.17-3.77-3.16-8.79-3.16-14v0c0-.11,0-2.85,0-6h0c-.89-9.75,15-5.2,17.41-11.94.5,1.92,7.29,9.77,12.87,13.45a5.89,5.89,0,0,1,1-.82,3.78,3.78,0,0,1,4.16.72c2.05,1.76,1.58,5.23.87,6.69-.53,1.12-2.08,3.74-5,3.8V115l-.08,10.78c5.65.05,19.1,1.06,19.57-11.06C260.12,107.14,257.23,105.64,257,95.6Z"></path><path class="cls-3" d="M222.32,128.88a11.85,11.85,0,0,1-7.83-2.68c-3.49-2.91-5.54-8-6.1-15.15,0-.08-.31-6.25-.56-11.31,0,0,0-.22,0-.26A4.21,4.21,0,0,1,209,96.34l.62-.55c0,.8.08,1.73.13,2.74.24,5,.57,11.91.6,12.37.51,6.49,2.37,11.25,5.39,13.76a10.45,10.45,0,0,0,8.1,2.13c5.15-.53,10-4.55,11.09-7.83a1,1,0,1,1,1.9.64c-1.33,3.92-6.6,8.54-12.79,9.18A15,15,0,0,1,222.32,128.88Z"></path><path class="cls-3" d="M202.42,171.69a1,1,0,0,1-.49-.13c-3.33-1.91-4.45-10.24-3.62-13.68s3.22-11.8,3.32-12.15a1,1,0,1,1,1.92.55c0,.08-2.5,8.76-3.3,12.06s.61,10.3,2.67,11.48a1,1,0,0,1-.5,1.87Z"></path><path class="cls-3" d="M211.66,110.49a1,1,0,0,1-.68-1.73c.08-.07,2-1.76,5-.21a1,1,0,1,1-.91,1.78c-1.71-.88-2.66-.16-2.76-.08A1,1,0,0,1,211.66,110.49Z"></path><path class="cls-3" d="M221.85,110.05a1,1,0,0,1-.68-1.73c.1-.09,2.47-2.16,6.77-.23a1,1,0,1,1-.82,1.82c-3-1.37-4.56-.15-4.62-.09A1,1,0,0,1,221.85,110.05Z"></path><path class="cls-3" d="M225.75,74.44a19.13,19.13,0,0,1,4.81.64,1.68,1.68,0,0,0,.5.07h.19c2-.19,3.78-.28,5.43-.28,4.65,0,8.09.76,9.94,2.2,6.1,4.74,8.13,9.26,8.36,18.59a40.06,40.06,0,0,0,1.73,11.07,22.73,22.73,0,0,1,1.12,8c-.26,6.44-4.56,9.18-14.39,9.18-.4,0-2.69,0-3.31-.55l.12,2.51c.9,0,2,0,3.19,0,6.4,0,16-.91,16.38-11.1.3-7.62-2.59-9.12-2.84-19.16-.22-9.07-2.05-14.61-9.13-20.12-2.48-1.93-6.57-2.62-11.17-2.62-1.81,0-3.71.11-5.62.29a20.73,20.73,0,0,0-5.31-.71h0c-3.78,0-8.3,1.09-13.87,4.51-.62.38-16.75,9.85-5.76,23.57a18.81,18.81,0,0,0-1.47,12.36c1.13,4.75-.9,5.13-.75,9.43.19,5.44,5.75,6.55,10.25,6.55a31.87,31.87,0,0,0,5.69-.53l-2.75-1.63a28.31,28.31,0,0,1-2.94.16c-5.37,0-8.14-1.55-8.25-4.62a9.22,9.22,0,0,1,.51-3.38,10.84,10.84,0,0,0,.19-6.45,16.85,16.85,0,0,1,1.27-10.91,2,2,0,0,0-.19-2.23c-2.71-3.39-3.8-6.74-3.23-10,1-5.89,7.2-9.9,8.43-10.64l.05,0c4.62-2.83,8.81-4.21,12.82-4.21h0"></path><path class="cls-3" d="M240.33,134a1,1,0,0,1-1-1V115.15a1,1,0,0,1,2,0V133A1,1,0,0,1,240.33,134Z"></path><path class="cls-3" d="M209.29,99.68c2-6.37,15-3.32,17.18-9.37.5,1.92,7.29,9.77,12.87,13.45a5.89,5.89,0,0,1,1-.82,3.76,3.76,0,0,1,1.55-.34,4.06,4.06,0,0,1,2.61,1.06c2.05,1.76,1.58,5.23.87,6.69-.53,1.12-2.08,3.74-5,3.8l-.08,2.69,2.07-1a8.47,8.47,0,0,0,4.85-4.61c1.12-2.32,1.44-6.67-1.36-9.08a6,6,0,0,0-3.92-1.54,5.87,5.87,0,0,0-2.36.51l-.28.14c-5.18-3.81-10.41-10.18-10.85-11.44a2,2,0,0,0-1.85-1.49h-.09a2,2,0,0,0-1.88,1.33c-.68,1.92-3.75,2.56-7,3.24-2.87.6-6.39,1.34-8.55,3.46C207.66,97.68,209.06,100.41,209.29,99.68Z"></path></g><g id="hand_2" data-name="hand 2"><path class="cls-2" d="M206.28,128.89c-.76-1.5-3.74-2.6-5.36-2.14-.6.17-5.84,1.64-7.2,3.29a16.83,16.83,0,0,0-1.78,3.21l-1.72,4.91a2.41,2.41,0,0,0,1.62,2.88l2.19-3.32a12,12,0,0,0,1.79,3.35,2.81,2.81,0,0,0,2.77-.13s1.25,1.9,2.15,1.86a6,6,0,0,0,2.35-1.3s1.28,1.09,2.25.93,1.56-2,1.56-2,3.26-.92,3.54-2C210.65,137.68,207.93,132.16,206.28,128.89Z"></path><path class="cls-3" d="M210.62,136l-3.47-6.94a6.29,6.29,0,0,0-8.36-2.89l-3.57,1.69a6.25,6.25,0,0,0-3.28,3.65s0,.05,0,.07a1,1,0,0,0-.26.36l-2.39,5.89a3.07,3.07,0,0,0,.25,2.46,3.44,3.44,0,0,0,2.06,1.72l.26,0a1,1,0,0,0,.26-2,1.44,1.44,0,0,1-.81-.72,1.17,1.17,0,0,1-.15-.83l1-2.42c0,.1.08.2.13.3,1,2,1.75,3.58,2.19,4.58a2.73,2.73,0,0,0,2.38,1.63h.23a3,3,0,0,0,1.76-.57,3,3,0,0,0,2.52,1.55h.31a2.59,2.59,0,0,0,1.68-1,2.69,2.69,0,0,0,1.91.84,2.91,2.91,0,0,0,1.07-.21,2.45,2.45,0,0,0,1.45-1.37,2.82,2.82,0,0,0,.2-1.26,3.13,3.13,0,0,0,2.3-1A3.52,3.52,0,0,0,210.62,136Zm-1.94,2.37a1.1,1.1,0,0,1-.75.26h0a.9.9,0,0,1-.7-.33L203.49,130a1,1,0,0,0-1.82.82L205.8,140a1.76,1.76,0,0,1,.11,1.1c0,.08-.1.18-.32.27s-.76.29-1.47-1l-3.87-8.64a1,1,0,0,0-1.82.82l3.67,8.2c-.15.5-.41.81-.69.85a1.06,1.06,0,0,1-.92-.63c-.57-1-2.88-5.91-3.73-7.74a1,1,0,0,0-1.82.84c.1.2,1.78,3.83,2.92,6.17a1,1,0,0,1-.89.38.79.79,0,0,1-.69-.42c-.45-1-1.2-2.63-2.23-4.68a4.34,4.34,0,0,1,2-5.86l3.57-1.68a4.31,4.31,0,0,1,5.72,2l3.45,6.88A1.53,1.53,0,0,1,208.68,138.37Z"></path></g><g id="character_5" data-name="character 5"><path class="cls-7" d="M344.83,209.57s-19,2.5-26.18,2.33c-5.73-.12-25.61-3.5-25.61-3.5l3.45-61.83c-.19-4.21-2.65-19.07,1.55-19.34l25.79-1.61,15.94.92Z"></path><path class="cls-7" d="M299.19,126.56C288,129.87,287.24,141,287.24,141s-3.57,36.94-3.79,45.12l16.39-.72Z"></path><path class="cls-10" d="M305.61,111l.42,15.71s-1.62,5.44,5.5,7.79c3.63,1.19,8.35-.42,9.23-1,6.34-3.86,5.43-9.84,5.43-9.84l-.52-15.32Z"></path><path class="cls-10" d="M330.23,105.68a4.86,4.86,0,1,0-4.76,5.07v0c.21,0,.53-.07.72-.1A4.74,4.74,0,0,0,330.23,105.68Z"></path><path class="cls-7" d="M341.94,210.41,361,209.24s-7.25-68.6-7.88-70.6c-.19-.59-1.17-5.19-2.47-6.73-6.94-8.14-15-3.4-13.87,7.06l.13,3.29Z"></path><path class="cls-11" d="M325.56,129.26c1-.12,6.16-.34,10.31-.5a17,17,0,0,1,9.65,2.68c2.34,1.43,7,6.9,7,6.9s-.42-7.55-9.12-11.09c-4.91-2-11.4-2.06-17.28-1.73Z"></path><path class="cls-4" d="M306.79,129.23s-5.3-.79-11.15,3.52c-5.54,4.08-8.92,11.3-8.92,11.3s-.56-8.3,5.88-13.47c2.86-2.29,7.26-4.23,14-4.09Z"></path><path class="cls-4" d="M295.49,208.9l-11.68,93.86H306.6l7-60.25.14,59.94H337.4L342,209.65a82.62,82.62,0,0,1-25.57,1.94Z"></path><path class="cls-12" d="M322,114.9s1,8.62-8.31,10.39c-8.17,1.55-8-1.87-8-1.87s6.48.52,8.63-.4C319.19,121,322,114.9,322,114.9Z"></path><path class="cls-3" d="M323.71,212.73a170.89,170.89,0,0,1-29.92-3,1,1,0,0,1-.8-1l3.17-62.34a1,1,0,1,1,2,.11L295,207.92c4.89.9,29.84,5.13,45.71,1a1,1,0,1,1,.5,1.93A71.76,71.76,0,0,1,323.71,212.73Z"></path><path class="cls-3" d="M360.28,209.53a1,1,0,0,1-1-.76c-.72-2.83-3.35-29.53-4.82-47.13-.86-10.25-1.66-19.92-1.84-20.73C349.16,126.1,340.93,126,333,126l-2.65,0a1,1,0,0,1-1-1,1,1,0,0,1,1-1h0l2.59,0c7.91.05,17.75.12,21.61,16.46.2.83.82,8.15,1.89,21,1.39,16.61,4.09,44.14,4.77,46.81a1,1,0,0,1-1,1.25Z"></path><path class="cls-3" d="M340.9,211c-.52,0-.3-.64-.33-1.16l-4.34-65.43a1,1,0,1,1,2-.14l4.34,65.43a1,1,0,0,1-.93,1.07Z"></path><path class="cls-10" d="M324.69,94.67a19.45,19.45,0,0,0-.13-2.64c-1.05-8.37-7.08-15.61-15.57-15.24l-1.26.06c-9.06.4-14.81,8-14.41,17.07,0,0,.54,10.55.66,14.46.46,5.8,2.64,10.49,7.5,12.84,0,0,2.64,2.55,8.95,2.28s13.29-7.25,13-18.6Z"></path><path class="cls-12" d="M295.81,109.14c.39,1.61,2.46,2.69,4.11,2.62l10.45-.47s2.6-.13,3.84-1.49c3.83-4.18,5.75-14,5.75-14l4.54,2a34.05,34.05,0,0,0-1.69,6.77c-.95,5.54.55,11.69-6.33,16.86-2,1.53-13.62,4.78-19.91-4.47-2.45-3.61-2.52-14.16-2.52-14.16Z"></path><path class="cls-3" d="M318,73.74c-17.6-4.22-23.2,2.76-25.41,5.52-3.46,4.31-2,13.52,1.3,13.37.1-.18-.42-2,.54-3.15C297,85.54,313.7,90.84,317,88.27c0,3.66,1.92,7.92,3.91,10.57,1.18,1.58,1,4.37,1.12,4.25,5.21-4.86,8-.63,8-.63L331.88,93a17.88,17.88,0,0,0-1.82-12.14C327.81,76.86,324,73.6,318,73.74Z"></path><path class="cls-3" d="M325.37,112.05a1,1,0,0,1-.05-2,4.22,4.22,0,0,0,3.8-4.3c-.13-2.75-1.34-3.39-2.39-3.65a2.55,2.55,0,0,0-2.94,1.36,1,1,0,0,1-1.28.6,1,1,0,0,1-.6-1.29,4.51,4.51,0,0,1,5.29-2.61c2.46.6,3.78,2.45,3.91,5.5a6.21,6.21,0,0,1-5.7,6.39Z"></path><path class="cls-3" d="M304.72,99a1,1,0,0,1-.71-.3,1,1,0,0,1,0-1.42,3.48,3.48,0,0,1,4.74-.16,1,1,0,0,1-1.28,1.54,1.47,1.47,0,0,0-2.06,0A1,1,0,0,1,304.72,99Z"></path><path class="cls-3" d="M295.94,99.17a1,1,0,0,1-.73-.31,1,1,0,0,1,0-1.42,3.1,3.1,0,0,1,4-.23,1,1,0,0,1-1.18,1.61,1.08,1.08,0,0,0-1.43.08A1,1,0,0,1,295.94,99.17Z"></path><path class="cls-3" d="M308.91,124.54a15.17,15.17,0,0,1-10.9-4.31,17.37,17.37,0,0,1-4.89-11.77l-.62-13.87a20.4,20.4,0,0,1,.62-6.09l2.33-.75a16.45,16.45,0,0,0-.95,6.75l.61,13.87a15.5,15.5,0,0,0,4.3,10.44,13.49,13.49,0,0,0,10.34,3.71c.37,0,7.38.18,10.82-7.89a1,1,0,0,1,1.84.79,14.56,14.56,0,0,1-7.8,8.09,12.14,12.14,0,0,1-4.86,1C309.47,124.54,309.19,124.54,308.91,124.54Z"></path><path class="cls-3" d="M300.06,111.05a1,1,0,0,1-1-1.17l1-5.73a1,1,0,1,1,2,.34l-.79,4.51,1.9-.09a1,1,0,0,1,1.05,1,1,1,0,0,1-1,1l-3.15.14Z"></path><rect class="cls-3" x="296.16" y="101.42" width="2.21" height="4.42" rx="1.1" transform="translate(-4.3 13.26) rotate(-2.54)"></rect><rect class="cls-3" x="305.21" y="101.15" width="2.21" height="4.42" rx="1.1" transform="translate(-4.27 13.66) rotate(-2.54)"></rect><path class="cls-3" d="M308,72.42v2a41.75,41.75,0,0,1,9.59,1.26,1.82,1.82,0,0,0,.46.06h.36a11.12,11.12,0,0,1,10,6.08,15.9,15.9,0,0,1,1.6,10.78l-1.53,8.51,1.67,1.36L331.88,93a17.88,17.88,0,0,0-1.82-12.14c-2.2-3.89-6-7.1-11.7-7.1H318A43.16,43.16,0,0,0,308,72.42h0c-9.87,0-13.64,4.7-15.36,6.84-3.44,4.28-2,13.37,1.22,13.37h.08c.1-.18-.42-2,.54-3.15.75-1.15,2.71-1.51,5.19-1.51,4.2,0,9.89,1,13.74,1a6.45,6.45,0,0,0,3.66-.73c0,3.66,1.92,7.92,3.91,10.57,1.16,1.55,1,4.25,1.12,4.25h0a8.57,8.57,0,0,1,1.94-1.48l-.5-2a6.49,6.49,0,0,0-1-2c-1.78-2.38-3.56-6.19-3.51-9.34a2,2,0,0,0-1.1-1.82,1.92,1.92,0,0,0-.9-.21,2,2,0,0,0-1.22.41,5,5,0,0,1-2.44.32,63.08,63.08,0,0,1-6.37-.49,72.93,72.93,0,0,0-7.37-.54c-2.42,0-5.36.26-6.78,2.3-.51-2.41-.23-5.84,1.31-7.76S299,74.42,308,74.42v-2"></path><path class="cls-3" d="M283.64,186.66h0a1,1,0,0,1-1-1c.21-8.13,3.6-42.72,3.75-44.18,0-.09.91-11.82,12.66-15.28a1,1,0,1,1,.56,1.91c-10.43,3.08-11.22,13.42-11.23,13.53,0,.39-3.53,36-3.74,44.07A1,1,0,0,1,283.64,186.66Z"></path><path class="cls-3" d="M314.32,135.89a10.05,10.05,0,0,1-7.92-3.42c-1.23-1.44-1.31-3.27-1.38-4.89l-.18-4a1,1,0,0,1,2-.09l.17,4c.07,1.42.13,2.76.91,3.68,4.05,4.73,11.6,2.23,13.92.44,3.66-2.83,3.45-5.51,3.33-7l-.56-13.36a1,1,0,0,1,1-1.05,1,1,0,0,1,1,1l.56,13.29c.13,1.7.41,5.22-4.11,8.71A15.78,15.78,0,0,1,314.32,135.89Z"></path><path class="cls-3" d="M304.35,115.25a7.72,7.72,0,0,1-3.45-.78,1,1,0,0,1,1-1.76,6,6,0,0,0,5.68-.35,1,1,0,0,1,1,1.73A8.28,8.28,0,0,1,304.35,115.25Z"></path><path class="cls-3" d="M284.12,301.91h0a1,1,0,0,1-1-1C284,272,293.9,210,294,209.41a1,1,0,1,1,2,.32c-.09.62-10,62.44-10.85,91.21A1,1,0,0,1,284.12,301.91Z"></path><path class="cls-3" d="M307.47,303.13h-.06a1,1,0,0,1-.94-1.05c.25-4.23,2.77-27,2.88-27.93a1,1,0,0,1,1.1-.88,1,1,0,0,1,.88,1.1c0,.24-2.62,23.65-2.87,27.82A1,1,0,0,1,307.47,303.13Z"></path></g><g id="character_4" data-name="character 4"><path class="cls-5" d="M73,120.27a41.27,41.27,0,0,1,7.43-.39L80.56,103s3.3,12.8,13.82,13.35c4,.22,3.57-.35,3.55-.4l.09,4.24c4.42.18,5-.12,11,.52,5.7.6,8.84,7.9,9.45,11.32.75,4.15,2.75,16.62,2.75,16.62L56,153.08s-.17-15.92,2-22.49C59.42,126.15,63.43,121.46,73,120.27Z"></path><path class="cls-8" d="M106.4,101.59c0-.1.3-3.42.3-6.06-4.33-2.27-9.33-4.1-11.94-7.83-.53,2.66-7.33,9.13-12.69,9.46a4.47,4.47,0,0,0-4-.83c-2.55,1.06-3,4.7-2.36,6.44a4.93,4.93,0,0,0,4.79,3.33l-.1,13.78c-1.41,0-5.67-.2-3.66,2.58,1.13,1.57,7.64,6.85,9.47,6.88,2,0,9.57,2.33,11.64.9,1.61-1.12,7-7.74,7-9.6,0-2.63-5.94-.45-6.85-.48l-.06-3C104.6,115.79,106.4,109.77,106.4,101.59Zm-24.77,4.33a.14.14,0,0,1,0,.06l0-.06Z"></path><path class="cls-7" d="M76.58,120.29c0,.94-.54,2.2-1.47,2.23-2.17.09-4.54,1.08-6.56,1.66-10.85,3.12-11.93,14.3-11.93,14.3s0-12.09,8.3-15.93c4.71-2.17,5.9-3.1,11.66-3Z"></path><path class="cls-3" d="M121,149.08a1,1,0,0,1-1-.92c0-.12-1.06-12.91-2.63-17.47-2.16-6.27-6.16-9.59-11.56-9.59l-6.75-.36a1,1,0,1,1,.1-2l6.7.35h0c6.19,0,11,3.89,13.39,10.94,1.66,4.79,2.69,17.43,2.73,18a1,1,0,0,1-.92,1.08Z"></path><path class="cls-9" d="M83.49,110.62s.66,7.48,6.14,9.14c5.15,1.56,7.56.58,7.56.58l-.11-3a10.3,10.3,0,0,1-4.45,0A16.11,16.11,0,0,1,83.49,110.62Z"></path><path class="cls-3" d="M97.74,123.63a1,1,0,0,1-1-1l0-5.06a1,1,0,0,1,1-1h0a1,1,0,0,1,1,1l0,5.06a1,1,0,0,1-1,1Z"></path><path class="cls-3" d="M56.09,149.08H56a1,1,0,0,1-.94-1.05l.72-13.54a17,17,0,0,1,1.88-5.92c2.81-5,7.79-8.1,14.8-9.08,2-.27,5.64-.67,6.83-.73V107a1,1,0,1,1,2,0v12.72a1,1,0,0,1-.91,1l-.72.07c-.62,0-4.64.41-6.92.73-6.36.89-10.84,3.61-13.33,8.08a14.81,14.81,0,0,0-1.64,5.13l-.71,13.46A1,1,0,0,1,56.09,149.08Z"></path><path class="cls-3" d="M95.63,118.77c-.49,0-1,0-1.51-.08-5.32-.55-9.85-4.53-11-7.91a1,1,0,1,1,1.89-.64c.93,2.74,5,6.11,9.3,6.56a8.82,8.82,0,0,0,6.78-1.78c2.53-2.11,4.09-6.12,4.52-11.6,0-.48.71-11,.72-11.4a1,1,0,0,1,1-1h0a1,1,0,0,1,1,1c0,.25-.72,11.49-.73,11.59-.48,6.12-2.24,10.48-5.23,13A10.27,10.27,0,0,1,95.63,118.77Z"></path><path class="cls-3" d="M110,149.49a.94.94,0,0,1-.53-.16,1,1,0,0,1-.32-1.37c3-4.74.94-12.63-1.15-15.35a1,1,0,0,1,1.59-1.22c2.36,3.08,4.87,11.85,1.26,17.63A1,1,0,0,1,110,149.49Z"></path><path class="cls-3" d="M92.53,131.28a20.64,20.64,0,0,1-12-3.6c-2.78-1.94-4.92-4.62-5.45-6.84a1,1,0,0,1,.75-1.2,1,1,0,0,1,1.2.74c.66,2.77,6.26,9.26,16.32,8.88,5.56-.21,10.55-4.41,10.47-8.81a1,1,0,0,1,1-1h0a1,1,0,0,1,1,1c.1,5.42-5.81,10.59-12.39,10.84Z"></path><path class="cls-3" d="M100.29,108h-.09l-2.41-.23a1,1,0,0,1,.19-2l1.12.11-.49-3.07a1,1,0,1,1,2-.31l.69,4.33a1,1,0,0,1-.26.84A1,1,0,0,1,100.29,108Z"></path><rect class="cls-3" x="101.78" y="100.18" width="2.28" height="4.11" rx="1.14" transform="translate(198.71 211.18) rotate(-176.13)"></rect><path class="cls-3" d="M104.48,98.08a1,1,0,0,1-.73-.32c-.37-.4-1.07-.13-1.07-.12a1,1,0,0,1-.8-1.84,3,3,0,0,1,3.34.59,1,1,0,0,1-.06,1.42A1,1,0,0,1,104.48,98.08Z"></path><path class="cls-3" d="M96.74,97.27a1,1,0,0,1-.6-.2,2.39,2.39,0,0,0-2-.13,1,1,0,0,1-.67-1.88,4.38,4.38,0,0,1,3.85.41,1,1,0,0,1-.61,1.8Z"></path><rect class="cls-3" x="93.92" y="99.86" width="2.28" height="4.11" rx="1.14" transform="translate(185.05 208.33) rotate(-177.21)"></rect><path class="cls-3" d="M97.69,112a6.45,6.45,0,0,1-4.54-2,1,1,0,0,1,1.48-1.35,4.18,4.18,0,0,0,4.88.89,1,1,0,0,1,1.34.45,1,1,0,0,1-.44,1.34A6.09,6.09,0,0,1,97.69,112Z"></path><path class="cls-3" d="M108.24,81.67A14,14,0,0,0,95,71.19c-5.17-.15-9.16-.86-13.61.1A8.48,8.48,0,1,0,68.3,81a17,17,0,0,0-1.57,10.19c1.89,13,12.14,16.19,13.66,15.64-.28-.65,1.45-.28,1.24-.94a4.85,4.85,0,0,1-5.88-3.15c-.62-1.74-.19-5.38,2.36-6.44a4.47,4.47,0,0,1,4,.83c5.36-.33,12.16-6.8,12.69-9.46,2.52,3.6,7.26,5.43,11.49,7.6a10.43,10.43,0,0,0,2.15-1.89A23,23,0,0,0,108.24,81.67Z"></path><path class="cls-3" d="M109.21,81.43A15,15,0,0,0,95,70.19c-1.4,0-2.71-.12-4-.2a37.62,37.62,0,0,0-9.06.17A9.48,9.48,0,0,0,64,74.3a9.41,9.41,0,0,0,3.1,7,17.39,17.39,0,0,0-1.33,10.08c1.82,11.21,8.18,14.19,11.6,15.79a7.09,7.09,0,0,1,2,1.11,1,1,0,0,0,2,0,1.93,1.93,0,0,0-.29-1h.19a1,1,0,0,0,0-2,4,4,0,1,1,0-8.09,3.09,3.09,0,0,1,1.77.61h0a1,1,0,0,1,.24.31,1,1,0,0,0,1.87-.61A22.1,22.1,0,0,0,95,89.58c2.26,2.42,5.48,4,8.6,5.52.73.36,1.47.72,2.19,1.09a1,1,0,0,0,1-.08A11.48,11.48,0,0,0,109.2,94a.84.84,0,0,0,.16-.33A23.61,23.61,0,0,0,109.21,81.43ZM107.49,93a9,9,0,0,1-1.34,1.18l-1.67-.83c-3.43-1.67-7-3.41-8.91-6.18a1,1,0,0,0-1-.4,1,1,0,0,0-.78.78c-.37,1.9-5.4,7-10.08,8.35a5.44,5.44,0,0,0-2.49-.67,6.05,6.05,0,0,0-6,6,6,6,0,0,0,.81,3c-3.15-1.78-6.93-5.06-8.25-13.17a15.66,15.66,0,0,1,1.48-9.59,1,1,0,0,0-.28-1.24A7.41,7.41,0,0,1,66,74.3a7.48,7.48,0,0,1,14.48-2.65,1,1,0,0,0,1.14.62A33.26,33.26,0,0,1,90.92,72c1.28.08,2.61.17,4,.21a13,13,0,0,1,12.31,9.73A21.93,21.93,0,0,1,107.49,93Z"></path><path class="cls-3" d="M68.56,82a1.73,1.73,0,0,1-.35,0,1,1,0,0,1,.17-2,7.65,7.65,0,0,0,5-1.81,1,1,0,0,1,1.24,1.56A9.93,9.93,0,0,1,68.56,82Z"></path><path class="cls-3" d="M78.44,75.84a1,1,0,0,1-.45-1.9,7.34,7.34,0,0,0,2.5-3.11,1,1,0,0,1,1.78.92c-1.58,3.06-3.22,3.9-3.4,4A1.12,1.12,0,0,1,78.44,75.84Z"></path></g><g id="character_4-2" data-name="character 4"><path class="cls-8" d="M176.09,200.5l-11.84-45.17s-3.93-6.2-5.87-7.62a11,11,0,0,0-4.78-1.9v-.67H91.09v.33c-5.13.3-10.79,3.17-12.82,8.56-.24.63-1.22,4.52-1.41,5.2-.62,2.34-5.92,30.91-7,36.16-2.1,10.17-4.09,18,8.91,22.58,2.61.93,6.16,2.17,10,3.25l-.31,10.53c0,2.87,4.62,7.25,4.62,7.25v3.82A3.19,3.19,0,0,0,96.27,246h52.31a3.09,3.09,0,0,0,.86-.13,3.18,3.18,0,0,0,2.32-3.05V237h-.7a9,9,0,0,0,2.54-6.26V210l1.49,6.26c2.34,6.07,11.76,4.58,16.25-.12C174.16,213.17,177.53,205,176.09,200.5Z"></path><path class="cls-10" d="M96.27,246a20.08,20.08,0,0,1-3.18-.83c-.56,4.51-1.63,11.74-2,15.33-.83,8-.67,43-.67,43l28.5-.17,3-29.08c.22-2.78,3.62,28.42,3.62,28.42l26.75.33s1.24-40-.25-57.13c-.28.08-3.21.13-3.51.13Z"></path><polygon class="cls-11" points="96.22 177 96.67 197.42 109.59 204.67 91.26 199.17 96.22 177"></polygon><path class="cls-3" d="M144.77,241H97a10,10,0,0,1-10-10l.56-10.11,2,.4L89,231.06A8,8,0,0,0,97,239h47.8a8,8,0,0,0,8-8V167.38a1,1,0,0,1,2,0V231A10,10,0,0,1,144.77,241Z"></path><path class="cls-8" d="M137.14,124.94l-.58,18.17s-1.85,9.66-9.56,13.56a33.16,33.16,0,0,0-3.66-4.34c-3-2-10.19-9.22-10.19-9.22V121.56Z"></path><polygon class="cls-5" points="96.22 177 96.67 197.42 109.59 204.67 91.26 199.17 96.22 177"></polygon><path class="cls-5" d="M107,217.56a5,5,0,0,1-.68.83,6.11,6.11,0,0,1-5.84,1.5c-4.94-1.23-16.84-4.24-21.2-5.79-8.92-3.18-10.78-7.84-10.39-13.75-1.36,7.76-.9,13.78,9.89,17.62,5.56,2,15.27,6.05,23.53,6.28,1.73.05,3.7-1,3.7-2.74Z"></path><path class="cls-6" d="M109.57,206.21l4.89.12-.18,8.17-.21,9.58-8-1.56"></path><path class="cls-5" d="M106.37,147.45c-2-.17-5.58-.81-8.24-.81-14.43,0-21.2,13.43-21.2,13.43s2-10.15,11.84-14.68c5.55-2.56,8.55-2.33,15.35-2.26Z"></path><path class="cls-5" d="M142.92,147.67a19.65,19.65,0,0,1,14.09,2.5c3.81,2.29,10,11.69,10,11.69s-3.95-19-22.88-18.75Z"></path><path class="cls-13" d="M118,129.58s-1.14,13.85,9.71,15.42a31.23,31.23,0,0,0,7.83,0l.17-3.38s-5.43.45-8-.5C122.1,139,118,129.58,118,129.58Z"></path><path class="cls-3" d="M162.59,220.32c-9.27,0-14.06-7.7-14.27-8a1,1,0,0,1,.33-1.37,1,1,0,0,1,1.38.33c.19.32,4.91,7.87,14,7a11.06,11.06,0,0,0,9.53-7.22,1,1,0,0,1,1.87.69,13.05,13.05,0,0,1-11.22,8.53C163.64,220.3,163.1,220.32,162.59,220.32Z"></path><path class="cls-6" d="M129.1,164.94c1.84-.65,4.76-5.11,9.19-9.44,10.67-10.42,5.49-17.69,5.49-17.69l-7.47,4.71s.23,4.19-4.94,9.53c-2.34,2.41-4.27,5.17-3.68,8.47C128.12,162.91,128.64,165.1,129.1,164.94Z"></path><path class="cls-3" d="M153.77,208.46a1,1,0,0,1-1-1V167.13a1,1,0,0,1,2,0v40.33A1,1,0,0,1,153.77,208.46Z"></path><path class="cls-3" d="M131.67,163.67a1,1,0,0,1-.69-1.73c.06-.06,6.1-5.76,10.43-10.76a12.12,12.12,0,0,0,2.52-9.78,4.06,4.06,0,0,0-1-2.31,1,1,0,0,1-.76-1.17,1,1,0,0,1,1.2-.78c.89.18,1.63,1.05,2.13,2.51a14,14,0,0,1-2.61,12.84c-4.4,5.08-10.51,10.85-10.58,10.9A.94.94,0,0,1,131.67,163.67Z"></path><path class="cls-6" d="M126.68,159.11a15.72,15.72,0,0,0-5.78-9c-2.52-1.94-8.4-8-8.4-8s-.44-10.79-.06-10.5c0,0-12.69-3.25-16.1,8.11-.37,1.21.06,4.52,2.08,7.83,2.34,3.83,14.3,9,21.21,12.69a16.22,16.22,0,0,1,4.87,4.06l3.17-.83Z"></path><path class="cls-3" d="M124,165.08a1,1,0,0,1-1-.77c-.57-2.41-4.41-3.94-8.86-5.71-4.88-1.93-10.94-4.34-15.46-9s-4.73-11.25-.29-16.26c5.12-5.78,13.12-3.88,14.38-3.29a1,1,0,0,1-.85,1.81c-.88-.41-7.73-2.05-12,2.8-3.71,4.18-3.62,9.62.22,13.54,4.22,4.32,9.82,6.54,14.76,8.5,5.18,2.06,9.27,3.68,10.08,7.11a1,1,0,0,1-.75,1.21Z"></path><path class="cls-3" d="M128.17,240.63a1,1,0,0,1-1-1l-.29-76.42a16,16,0,0,0-6.22-12.28L118.19,149c-7.24-5.52-8.73-6.84-8.87-7.82a1,1,0,0,1,.86-1.13,1,1,0,0,1,1.09.7c.58.9,5.12,4.36,8.13,6.66.86.66,1.71,1.3,2.48,1.9a18,18,0,0,1,7,13.86l.29,76.41a1,1,0,0,1-1,1ZM111.3,140.94Z"></path><path class="cls-10" d="M130.33,183s-2.27.32-3.45,5-5.33,22.27-5.22,21.92-2.25,8.8-3.36,16.18c-.56,3.68,2.76,7.82,5.58,7.72l27.23-.39A7.3,7.3,0,0,0,156,228.5c1.53-5.16,10.48-40.51,10.48-40.51s.56-4.3-2.7-4.93Z"></path><path class="cls-12" d="M123.59,226.17c1.82-9.34,8.1-39.28,9.25-43.92l-1.92.25s-2.86.8-4,5.43-5.34,22.27-5.23,21.92-2.25,8.8-3.36,16.18c-.56,3.68,1.34,7.82,4.17,7.72l28.64-.39A7.3,7.3,0,0,0,156,228.5c.06-.23.15-.53.24-.87l-29.18.81C125.45,228.45,123.29,227.72,123.59,226.17Z"></path><path class="cls-3" d="M123.26,235.32a5.56,5.56,0,0,1-5.52-6.18l.42-3.75a1,1,0,0,1,2,.22l-.42,3.76a3.55,3.55,0,0,0,3.63,3.95L151,232.6c2.65-.41,3.38-1.86,4.32-4.82l7-27.44a1,1,0,0,1,1.21-.73,1,1,0,0,1,.73,1.22l-7,27.5c-1,3.21-2.09,5.68-6,6.26h-.12l-27.7.72Z"></path><path class="cls-3" d="M122.65,211.18l-.19,0a1,1,0,0,1-.79-1.17c1.89-9.86,4.09-20.4,4.9-23.49.67-2.53,2.65-5.19,6.12-5.12l9.9,0h0a1,1,0,0,1,0,2l-9.92,0c-3-.06-3.94,2.76-4.17,3.62-.8,3.06-3,13.54-4.87,23.36A1,1,0,0,1,122.65,211.18Z"></path><path class="cls-3" d="M136.68,187.94a1,1,0,0,1-1-1,1,1,0,0,1,1-1l23.41-.44a1,1,0,0,1,1,1,1,1,0,0,1-1,1l-23.41.44Z"></path><circle class="cls-3" cx="133.01" cy="190.75" r="1.17"></circle><path class="cls-3" d="M144.59,212.67a4.42,4.42,0,1,1,4.42-4.42A4.42,4.42,0,0,1,144.59,212.67Zm0-6.84a2.42,2.42,0,1,0,2.42,2.42A2.43,2.43,0,0,0,144.59,205.83Z"></path><path class="cls-8" d="M122.51,205.46h-2.22l-5.83,1.66.38,16.84,3.53,1.18,9.09-.44,4.47-.11c2.94-.28,3.29-2,2.28-2.9l1.36,0c1.28,0,2.33-1.45.86-2.84l-.9-.35c1.27.11,2.07-.05,2.54-.63a1.53,1.53,0,0,0-.19-2.28,3.11,3.11,0,0,0-2.27-.85h-.26s1.82-1.88,1.47-2.62a2.36,2.36,0,0,0-2-1.27l-5.64-.07-7.75-.25Z"></path><polygon class="cls-10" points="114.46 207.74 115.85 206.23 122.59 205.29 121.38 210.67 114.31 210.41 114.46 207.74"></polygon><path class="cls-3" d="M114.67,208.46a1,1,0,0,1-.29-2c1-.29,5.87-1.76,7-1.87l1.57-.07a1,1,0,0,1,1,1,1,1,0,0,1-.95,1l-1.51.06c-.64.07-4.36,1.14-6.54,1.79A1,1,0,0,1,114.67,208.46Z"></path><path class="cls-3" d="M135.41,215.64a1,1,0,0,1-.18-2,.79.79,0,0,0,.59-.44.92.92,0,0,0,.09-.69,1.36,1.36,0,0,0-1.16-.71l-14.06-.16a1,1,0,0,1-1-1,1,1,0,0,1,1-1h0l14.1.17a3.32,3.32,0,0,1,2.9,1.85,2.89,2.89,0,0,1-.12,2.46,2.78,2.78,0,0,1-2,1.49Z"></path><path class="cls-3" d="M124.35,219.49a1,1,0,0,1,0-2l11.22-.07c1,0,1.41-.29,1.51-.41s.16-.16.15-.51c0-.77-1-.84-1.07-.84l-11.72.1h0a1,1,0,0,1,0-2l11.78-.1a3,3,0,0,1,3,2.78,2.66,2.66,0,0,1-.69,1.95,4.07,4.07,0,0,1-2.93,1l-11.24.07Z"></path><path class="cls-3" d="M124.28,222.83a1,1,0,1,1,0-2c3.44,0,10.21-.11,11.23-.18a1,1,0,0,0,.91-.54c.13-.36-.19-.73-.39-.91a1,1,0,0,1,0-1.42,1,1,0,0,1,1.41,0,2.84,2.84,0,0,1,.9,3,3,3,0,0,1-2.66,1.87c-1.32.09-10.94.17-11.35.18Z"></path><path class="cls-3" d="M120.44,226.16a12.49,12.49,0,0,1-3-.34,1,1,0,0,1,.56-1.92,11.61,11.61,0,0,0,2.46.26l11.39-.29c.81-.08,1.41-.32,1.59-.68a1,1,0,0,0-.1-.87,1,1,0,0,1,1.72-1,3,3,0,0,1,.16,2.8c-.35.7-1.21,1.58-3.25,1.77l-11.48.29Z"></path><path class="cls-3" d="M102.27,225.22a5.09,5.09,0,0,1-1.22-.15c-5-1.26-17.37-4.37-23-6.16-13.31-4.25-11.48-12.94-9.53-22.15l.32-1.57c.52-2.47,2-10.51,3.35-18.29,1.63-9.11,3.16-17.71,3.49-19,2.6-10.09,11.17-13.78,17.91-15.09a1,1,0,0,1,.38,2c-6.17,1.2-14,4.53-16.35,13.61-.31,1.2-1.91,10.17-3.46,18.84-1.4,7.79-2.84,15.85-3.36,18.35l-.33,1.57c-2,9.37-3.4,16.14,8.19,19.83,5.55,1.77,17.83,4.88,22.85,6.13a2.87,2.87,0,0,0,3.49-1.89L108.11,208c.12-.51.41-2.19-.94-2.77-.61-.21-14.23-4-23.22-6.44a1,1,0,0,1-.7-1.23,1,1,0,0,1,1.23-.7c8.59,2.36,23,6.35,23.48,6.53,2.22,1,2.52,3.33,2.1,5.07-.51,2.17-3,13-3.12,13.29A4.81,4.81,0,0,1,102.27,225.22Z"></path><path class="cls-3" d="M91.89,198.38l-.21,0a1,1,0,0,1-.77-1.18l5.7-27.26a1,1,0,0,1,2,.41l-5.7,27.25A1,1,0,0,1,91.89,198.38Z"></path><path class="cls-3" d="M114.06,225.08a.65.65,0,0,1-.19,0l-8-1.56a1,1,0,1,1,.39-2l6.83,1.33.35-15.56-3.9-.1a1,1,0,0,1-1-1,1,1,0,0,1,1-1l4.9.12a1,1,0,0,1,1,1l-.4,17.75a1,1,0,0,1-.37.76A1,1,0,0,1,114.06,225.08Z"></path><path class="cls-8" d="M114.14,107.25a22.14,22.14,0,0,1,.35-3c1.86-9.55,9.36-17.41,19.1-16.31l1.45.16c10.39,1.17,16.88,10.31,15.71,20.7,0,0-1.9,12.16-2.35,16.65-1,6.63-3.88,12.47-9.64,14.79,0,0-3.23,2.13-10.46,1.32s-12.9-11.36-11.67-24.39Z"></path><path class="cls-8" d="M106.9,119.49a5.61,5.61,0,1,1,5.08,6.2v0c-.24,0-.6-.12-.82-.17A5.45,5.45,0,0,1,106.9,119.49Z"></path><path class="cls-3" d="M112.76,127.09A6.49,6.49,0,0,1,108,125a7.12,7.12,0,0,1-1.94-5.55c.38-3.43,2-5.41,4.8-5.89,2.27-.39,5.15.73,5.87,3.22A1,1,0,0,1,116,118a1,1,0,0,1-1.24-.68c-.39-1.36-2.22-2-3.61-1.81-1.9.33-2.87,1.61-3.15,4.14a5.21,5.21,0,0,0,1.41,4,4.5,4.5,0,0,0,3.52,1.48,1,1,0,0,1,1,1,1,1,0,0,1-1,1Z"></path><path class="cls-3" d="M137.25,114.71a1,1,0,0,1-.69-.28,2.33,2.33,0,0,0-2.75-.36,1,1,0,0,1-1-1.73A4.34,4.34,0,0,1,138,113a1,1,0,0,1-.7,1.72Z"></path><path class="cls-3" d="M147.22,116.31a1,1,0,0,1-.73-.31,1.22,1.22,0,0,0-1.66-.35,1,1,0,0,1-1.16-1.63,3.21,3.21,0,0,1,4.27.61,1,1,0,0,1-.72,1.68Z"></path><path class="cls-3" d="M133.22,142.78a19.53,19.53,0,0,1-3.59-.34,15.07,15.07,0,0,1-12-13.24,1,1,0,0,1,2-.23A13,13,0,0,0,130,140.47a13.6,13.6,0,0,0,10.88-2.09c3.33-2.46,5.49-6.75,6.09-12.09l2.61-16.74c1.14-10.17-5.19-18.69-14.73-19.76l-1.45-.17a1,1,0,0,1,.22-2l1.45.16c10.68,1.2,17.77,10.67,16.49,22L149,126.56c-.66,5.85-3.1,10.63-6.88,13.43A14.65,14.65,0,0,1,133.22,142.78Z"></path><path class="cls-3" d="M141.23,127.86h-.11l-3.62-.41a1,1,0,0,1-.88-1.11,1,1,0,0,1,1.1-.88l2.38.27-.58-5.44a1,1,0,0,1,.89-1.1,1,1,0,0,1,1.1.89l.71,6.68a1,1,0,0,1-1,1.1Z"></path><rect class="cls-3" x="143.7" y="118.66" width="2.55" height="5.1" rx="1.27" transform="translate(275.5 257.86) rotate(-173.59)"></rect><rect class="cls-3" x="133.49" y="117.13" width="2.55" height="5.1" rx="1.27" transform="translate(255.32 253.67) rotate(-173.59)"></rect><path class="cls-3" d="M137.52,133.41A10.08,10.08,0,0,1,131,131a1,1,0,0,1,1.35-1.48h0a7.74,7.74,0,0,0,8.54,1.07,1,1,0,1,1,.92,1.78A9.34,9.34,0,0,1,137.52,133.41Z"></path><path class="cls-3" d="M120.75,85.83c5.38-5.12,28.25-6.41,32.75,5.09,1.06,2.7.09,2.53,1.13,4.17a12.21,12.21,0,0,1-.69,14.33c-1.07,1.28-2.24,2.11-3.44,1.91,0-.08-.28-1.22-.55-2.58a5.88,5.88,0,0,0-5.48-4.73c-5.66-.28-12.16-.5-15.55-2,.07,4.2-8.58,5-8,14,.31,4.81-5.2,2.16-5.35,1.89-4.38-7.56-8.69.43-8.69.43l-1-3.44c-2.37-8.23-2.47-16.14,3.06-22.67C111.79,88.84,117.06,85.44,120.75,85.83Z"></path><path class="cls-3" d="M176.34,204a1,1,0,0,1-.9-.56c-3.07-6.27-6.71-24.55-8.88-35.46-.67-3.41-1.21-6.1-1.43-6.87-2.88-10-7-14.32-15.23-15.88a1,1,0,0,1,.38-2c9,1.7,13.68,6.54,16.77,17.29.24.84.73,3.3,1.47,7,2,10.11,5.76,28.93,8.72,35a1,1,0,0,1-.46,1.34A1,1,0,0,1,176.34,204Z"></path><path class="cls-3" d="M129.59,155.46a1,1,0,0,1-.66-1.75,31.71,31.71,0,0,0,4.4-4.6,7.33,7.33,0,0,0,1.52-4.49v-2.79a1,1,0,0,1,2,0v2.79a9.42,9.42,0,0,1-1.93,5.7,33.69,33.69,0,0,1-4.68,4.9A1,1,0,0,1,129.59,155.46Z"></path><path class="cls-3" d="M112.45,143.33a1,1,0,0,1-1-1V126.5a1,1,0,0,1,2,0v15.83A1,1,0,0,1,112.45,143.33Z"></path><path class="cls-3" d="M90.92,303.83a1,1,0,0,1-1-.94c-.09-1.53-2.06-37.77,1.09-54.2a1,1,0,0,1,1.18-.8,1,1,0,0,1,.79,1.17c-3.11,16.19-1.09,53.34-1.07,53.72a1,1,0,0,1-.94,1.05Z"></path><path class="cls-3" d="M125,303.5a1,1,0,0,1-1-.94l-1.5-23.62a1,1,0,0,1,.93-1.06,1,1,0,0,1,1.06.93l1.5,23.63a1,1,0,0,1-.93,1.06Z"></path><path class="cls-3" d="M118.92,303.83h-.09a1,1,0,0,1-.9-1.09l3-32.58c1.32-7.23,4.16-9.38,4.28-9.47a1,1,0,0,1,1.18,1.62s-2.34,1.87-3.48,8.12l-3,32.5A1,1,0,0,1,118.92,303.83Z"></path><path class="cls-3" d="M152,303.88h-.07a1,1,0,0,1-.93-1.06c0-.38,2.34-38.2.38-52.93a1,1,0,1,1,2-.26c2,14.92-.27,51.76-.37,53.32A1,1,0,0,1,152,303.88Z"></path><path class="cls-3" d="M148.58,247H96.27a4.18,4.18,0,0,1-4.18-4.18V239a1,1,0,0,1,2,0v3.82A2.19,2.19,0,0,0,96.27,245h52.31a2.19,2.19,0,0,0,2.18-2.18V237a1,1,0,0,1,2,0v5.82A4.18,4.18,0,0,1,148.58,247Z"></path><path class="cls-14" d="M148.55,171.92l-3.71-3.71a1,1,0,0,0-1.42,0l-3.7,3.71a1,1,0,0,0,0,1.43l2.47,2.48a1.78,1.78,0,0,0,1.23.51h1.43a1.73,1.73,0,0,0,1.22-.51l2.48-2.48A1,1,0,0,0,148.55,171.92Z"></path><path class="cls-3" d="M118.72,119.85c-1.7,0-3.67-.85-4-1.45-.73-1.27-1.92-2.79-3.22-2.76-1.66,0-3.28,2.35-3.72,3.16a1,1,0,0,1-1.84-.2l-1-3.45c-2.86-9.9-1.79-17.62,3.26-23.59,3-3.5,8.28-6.88,12.22-6.75,4-3.34,14-4.74,21.95-3,6.21,1.38,10.39,4.4,12.08,8.73a7.46,7.46,0,0,1,.64,2.8,1.91,1.91,0,0,0,.41,1.21,13.17,13.17,0,0,1-.77,15.5q-2.18,2.61-4.37,2.26a1,1,0,0,1-.7-.48c-.11-.2-.14-.24-.67-2.9a4.89,4.89,0,0,0-4.55-3.93l-1,0c-5-.24-10.26-.49-13.71-1.61-.5,1.42-1.78,2.47-3.11,3.58-2.34,1.93-5,4.12-4.67,9,.17,2.68-1.24,3.51-2.1,3.77A3.53,3.53,0,0,1,118.72,119.85Zm-2.4-2.64c.6.34,2.34.94,3.12.5q.57-.33.48-1.65c-.38-5.89,3-8.65,5.39-10.67,1.63-1.34,2.63-2.23,2.61-3.37a1,1,0,0,1,.45-.86,1,1,0,0,1,1-.07c3,1.35,8.94,1.63,14.17,1.88l1,0a6.87,6.87,0,0,1,6.41,5.53c.08.38.23,1.16.35,1.74a4.75,4.75,0,0,0,1.89-1.51,11.15,11.15,0,0,0,.62-13.15,3.85,3.85,0,0,1-.72-2.2,5.37,5.37,0,0,0-.5-2.15c-1.82-4.65-6.8-6.65-10.65-7.5-8.16-1.81-17.54,0-20.48,2.78a1,1,0,0,1-.79.27c-3.29-.35-8.26,2.85-11,6-4.65,5.5-5.55,12.41-2.86,21.75l.42,1.43a6,6,0,0,1,4.19-2.39C113.27,113.58,114.89,114.81,116.32,117.21Zm-.11-.07Z"></path></g><g id="character_3" data-name="character 3"><path class="cls-10" d="M375.34,235.13c-1.12.43-25.38,3.6-32,4a198.9,198.9,0,0,1-29.87-.88c-6.44,23.84-1.71,64.69-1.71,64.69l28.11-.38,3.55-44.89c2.09.66,4.33,5.45,4.59,8.58l3.47,36.52,24.34.19s1.71-41.56.77-50.54C375.81,244.89,375.69,238.27,375.34,235.13Z"></path><path class="cls-3" d="M377.22,303.21h0a1,1,0,0,1-1-1c0-.49,1.63-48.65-1.86-66.87a1,1,0,1,1,2-.37c3.54,18.43,2,65.32,1.89,67.31A1,1,0,0,1,377.22,303.21Z"></path><path class="cls-3" d="M340.57,302.84h-.05a1,1,0,0,1-.95-1.06L342,258.07a1,1,0,1,1,2,.11l-2.39,43.71A1,1,0,0,1,340.57,302.84Z"></path><path class="cls-3" d="M350.73,303.59a1,1,0,0,1-1-.91l-3.46-36.61c-1.51-8.62-5.81-9.68-5.85-9.69a1,1,0,0,1-.77-1.18,1,1,0,0,1,1.16-.78c.23,0,5.67,1.21,7.44,11.39l3.47,36.68a1,1,0,0,1-.9,1.09Z"></path><path class="cls-3" d="M311.34,303.59a1,1,0,0,1-1-.94c0-.42-2.79-42.76,1.94-63.62a1,1,0,0,1,2,.44c-4.66,20.58-1.92,62.63-1.89,63a1,1,0,0,1-.93,1.06Z"></path><path class="cls-11" d="M369.84,155.88c0,.5,2,34.5,2,34.5s-9.87,5.12-9.5,5.12,13.25-3.75,13.25-3.75Z"></path><path class="cls-8" d="M331.28,109.08,331,127.63s2.22,10.16,9.93,14.06c0,0,4.14-1.83,5.13-2.5,3-2,9.24-11.94,9.24-11.94V109.08Z"></path><path class="cls-8" d="M397.09,184.5c-1.09-5.25-7-40.75-7.25-41.37-1.33-3.53-3.69-7.42-6.77-7.73a12.51,12.51,0,0,0-4.56.38c1.37-2.2,1.67-3.55-1.89-3.58l-56.82-.31a5.18,5.18,0,0,0-3.36,1.23c-2.65,1-8.8,4.38-12.27,15.55-1.5,4.83-5.45,55.33-5.45,55.33l13.47-1.44L311,236.63s16,4,28.25,3.12c31.62-2.17,37.87-5.5,37.87-5.5l-.65-17.62a106.48,106.48,0,0,0,12.73-4.5C401.66,206.27,399.19,194.67,397.09,184.5Zm-21.59,7-.39-10.58,2,10Z"></path><path class="cls-10" d="M397.09,184.5c-1.09-5.25,4.23,16.89-8.25,22.75-6.12,2.88-34.42,10.58-34.42,10.58,0,1.73-.06,3.09,1.67,3,8.26-.23,28.76-7.16,34.92-10C401.26,206.25,399.19,194.67,397.09,184.5Z"></path><path class="cls-10" d="M362.05,134.1c2-.16,4.66-.19,7.32-.19,14.43,0,20.55,12.42,20.55,12.42A17.56,17.56,0,0,0,379.65,132c-5.55-2.55-8.55-2.33-15.35-2.26Z"></path><path class="cls-10" d="M329.65,134.44s-4.87-3.38-13.62,2.12c-3.77,2.37-11.86,12.94-11.86,12.94s4.68-20,23.61-19.69Z"></path><path class="cls-13" d="M351.24,117.21s.74,10-10.12,11.55c-9.49,1.37-9.53-3.32-9.53-3.32s7.22,1.2,9.75.25C347,123.56,351.24,117.21,351.24,117.21Z"></path><path class="cls-12" d="M331.92,146.71c-4.35-1.54-7-17.63-7-17.63l5.5-1.54c.77-.23,3.46,9.45,8.75,13.15C339.17,140.69,332.92,147.06,331.92,146.71Z"></path><path class="cls-3" d="M339.93,150.45a1,1,0,0,1-.74-.33l-4.27-4.67a1,1,0,0,1,1.48-1.35l3.65,4,3.79-2.87a1,1,0,1,1,1.21,1.59l-4.52,3.43A1,1,0,0,1,339.93,150.45Z"></path><path class="cls-3" d="M337,240.68a137,137,0,0,1-26.89-2.37,1,1,0,0,1-.78-1l5-83.33a1,1,0,1,1,2,.12l-4.95,82.47c5.1,1,32.95,5.62,65.31-2.84a1,1,0,0,1,.51,1.94A159.81,159.81,0,0,1,337,240.68Z"></path><path class="cls-3" d="M331.46,148.11c-2.18,0-4.92-8.91-5.45-10.7-1-3.43-1.95-7.72-2-7.76a1,1,0,0,1,.61-1.14,41.7,41.7,0,0,1,5.48-1.8,1,1,0,0,1,.4,2,34.53,34.53,0,0,0-4.35,1.39c.32,1.4,1,4.33,1.73,6.78a38.1,38.1,0,0,0,3.63,9l4.65-3.26a1,1,0,0,1,1.15,1.63L332,147.93a.94.94,0,0,1-.54.18Z"></path><path class="cls-12" d="M343.08,141.56a67.93,67.93,0,0,0,9.46-9c1.8-2.19,4.65-7.82,4.27-7.52l6.87,3.86a31.1,31.1,0,0,1-3.58,7.94c-3.36,5.52-9.72,11.63-9.72,11.63l-5.84-5.26Z"></path><path class="cls-3" d="M350.38,149.46a1,1,0,0,1-.67-.26l-5.49-5a1,1,0,1,1,1.34-1.48l4.8,4.34a81,81,0,0,0,8.49-9.73,31.08,31.08,0,0,0,4.52-8.47c-.88-.44-2.44-1.23-4.05-2.18a6.52,6.52,0,0,0-2.42-.89c-.4,1.6-1.53,4.58-4.73,8.81a31,31,0,0,1-9,7.82,1,1,0,0,1-1.35-.41,1,1,0,0,1,.41-1.36,29.35,29.35,0,0,0,8.38-7.25c3.75-5,4.4-8,4.52-8.77a1,1,0,0,1,.84-.85,7.05,7.05,0,0,1,4.39,1.18c2.32,1.36,4.61,2.44,4.63,2.45a1,1,0,0,1,.56,1.09c-.34,1.82-1.86,5.53-5,10a85,85,0,0,1-9.42,10.66A1,1,0,0,1,350.38,149.46Z"></path><path class="cls-6" d="M352.59,158h12.32v9.64a7.1,7.1,0,0,1-7.09,7.09h-.69a7.09,7.09,0,0,1-7.09-7.09V158"></path><path class="cls-3" d="M357.82,175.71h-.69a8.1,8.1,0,0,1-8.09-8.09V158a1,1,0,1,1,2,0v9.64a6.09,6.09,0,0,0,6.09,6.09h.69a6.09,6.09,0,0,0,6.09-6.09V159H352.59a1,1,0,0,1,0-2h12.32a1,1,0,0,1,1,1v9.64A8.1,8.1,0,0,1,357.82,175.71Z"></path><path class="cls-10" d="M314.51,226.33c-2.69,0-5.13-3.58-6.19-7l-8.13-34.9a5.88,5.88,0,0,1-.17-3.47A3.78,3.78,0,0,1,303.9,178l29.44,1c2.94,0,4.5,1.78,5.08,5.42l6.94,36.09c.51,2.27,2.27,6-1.23,7C343.44,227.7,314.51,226.33,314.51,226.33Z"></path><path class="cls-12" d="M345.36,220.52l-6.94-36.09c-.57-3.58-2.6-5.31-5.45-5.37a7.06,7.06,0,0,1,2,3.25l4.35,30.31c.44,1.9,1.34,6.46-1.65,7.3-.59.16-23.11.24-23.11.24-2.29,0-6.56-3.41-7.46-6.29l1.22,5.44c1.06,3.44,3.5,7,6.19,7,0,0,28.93,1.37,29.62,1.17C347.63,226.5,345.87,222.79,345.36,220.52Z"></path><path class="cls-3" d="M343.52,228.5c-2.89,0-12.63-.39-29-1.17-3.25,0-6-4-7.12-7.73l-8.14-35a6.71,6.71,0,0,1-.16-4A4.76,4.76,0,0,1,303.9,177l29.47,1h0c3.38,0,5.37,2.05,6,6.26l6.93,36.06c.07.31.18.69.29,1.09.59,2.07,1.68,5.93-2.22,7.05A6.79,6.79,0,0,1,343.52,228.5ZM303.87,179a2.77,2.77,0,0,0-2.89,2.21,5,5,0,0,0,.16,2.88l8.15,35c.93,3,3.09,6.25,5.22,6.25h0c11.08.53,27.87,1.27,29.38,1.19,1.61-.49,1.6-1.64.78-4.56-.13-.43-.24-.85-.33-1.22l-6.94-36.12c-.65-4.07-2.44-4.61-4.1-4.61Z"></path><circle class="cls-8" cx="319" cy="202.27" r="3.53"></circle><path class="cls-3" d="M319,206.8a4.53,4.53,0,1,1,4.53-4.53A4.54,4.54,0,0,1,319,206.8Zm0-7.06a2.53,2.53,0,1,0,2.53,2.53A2.53,2.53,0,0,0,319,199.74Z"></path><path class="cls-3" d="M328.9,184h0l-19.82-.69a1,1,0,0,1,.08-2l19.81.69a1,1,0,0,1,0,2Z"></path><circle class="cls-3" cx="305.28" cy="185.19" r="1.24"></circle><path class="cls-8" d="M341.94,207.78l-7,1-5.58.75a2.36,2.36,0,0,0-1.85,1.51c-.25.78,1.78,2.42,1.78,2.42l-.25,0a3.1,3.1,0,0,0-2.16,1.12,1.53,1.53,0,0,0,.09,2.29c.54.52,1.35.58,2.6.31l-.86.46c-1.29,1.56-.07,2.85,1.2,2.71l1.36-.12c-.89,1-.33,2.68,2.62,2.6l4.45-.43,7.67-.12,8.12-3.68-2-14.62-9-2.35-1.06.36Z"></path><polygon class="cls-10" points="352.09 203.66 347.64 202.68 341.41 202.06 341.61 208 352.57 206.29 352.09 203.66"></polygon><path class="cls-3" d="M349.12,204.39a.75.75,0,0,1-.21,0l-3.69-.78a11.49,11.49,0,0,0-3-.33h0a1,1,0,0,1-1-1,1,1,0,0,1,1-1,14.54,14.54,0,0,1,3.43.37l3.67.78a1,1,0,0,1-.21,2Z"></path><path class="cls-3" d="M329.25,214.4h-.07a2.75,2.75,0,0,1-2.17-1.24,2.86,2.86,0,0,1-.42-2.42,3.35,3.35,0,0,1,2.6-2.19l14-1.88a1,1,0,0,1,.27,2l-14,1.88a1.36,1.36,0,0,0-1,.83,1,1,0,0,0,.18.68.78.78,0,0,0,.64.36,1,1,0,0,1-.05,2Z"></path><path class="cls-3" d="M329,218.2a3.58,3.58,0,0,1-2.35-.7,2.65,2.65,0,0,1-.92-1.85,3,3,0,0,1,2.62-3.11l11.75-1.35a1,1,0,1,1,.23,2l-11.7,1.34h0s-1,.19-.91.95c0,.35.16.45.21.49s.51.32,1.56.22l11.13-1.29a1,1,0,0,1,1.11.88,1,1,0,0,1-.88,1.11l-11.14,1.29Z"></path><path class="cls-3" d="M329.8,221.39a2.94,2.94,0,0,1-2.68-1.53,2.83,2.83,0,0,1,.52-3.13,1,1,0,0,1,1.54,1.27c-.18.22-.44.62-.27,1a1,1,0,0,0,1,.42c1,0,7.75-.8,11.17-1.19a1,1,0,0,1,1.1.88,1,1,0,0,1-.88,1.11c-.4,0-10,1.13-11.28,1.2Z"></path><path class="cls-3" d="M344.31,224.05h0l-10-.05c-2.21.06-3.27-.77-3.75-1.48a2.62,2.62,0,0,1-.23-2.54,1,1,0,0,1,1.83.8.65.65,0,0,0,.06.62c.13.19.59.64,2.06.6l9.95.05a11,11,0,0,0,2.34-.56c.83-.36,2.42-1.3,3.7-2.06a26.31,26.31,0,0,1,2.44-1.36,1,1,0,0,1,.72,1.87c-.26.1-1.31.72-2.15,1.21a40.65,40.65,0,0,1-3.92,2.17,12.4,12.4,0,0,1-3,.72Z"></path><path class="cls-3" d="M341.93,208.41a1,1,0,0,1-1-1l-.09-5.14a1,1,0,0,1,1-1h0a1,1,0,0,1,1,1l.09,5.15a1,1,0,0,1-1,1Z"></path><path class="cls-3" d="M356.39,221.85a3.46,3.46,0,0,1-2.05-.55,4,4,0,0,1-1.63-3l-2.44-15.6a.81.81,0,0,1,0-.16,3.85,3.85,0,0,1,2.86-4c7.54-2.42,25.54-8.13,25.54-8.13l.61,1.91s-18,5.71-25.54,8.12a1.88,1.88,0,0,0-1.47,2.06l2.43,15.59a2,2,0,0,0,.82,1.58,4.17,4.17,0,0,0,2.7-.13c2-.63,6.89-1.91,12.05-3.27,6.9-1.81,14.73-3.86,17.76-4.89,10.91-3.71,9.91-10.64,8.53-20.24l-.2-1.38c-.4-2.81-7-41.12-7.75-44.62-2.14-9.39-8.78-13.76-20.91-13.76a1,1,0,0,1,0-2c13,0,20.51,5,22.86,15.32.8,3.51,7.38,42,7.78,44.78l.2,1.38c1.4,9.75,2.61,18.17-9.87,22.41-3.1,1.05-11,3.12-17.89,4.94-5.14,1.35-10,2.62-12,3.23A8.57,8.57,0,0,1,356.39,221.85Z"></path><path class="cls-3" d="M376.46,193a1,1,0,0,1-1-.82l-7.12-39.88a1,1,0,1,1,2-.35l7.13,39.87a1,1,0,0,1-.81,1.17Z"></path><path class="cls-3" d="M321.52,82.64a7,7,0,1,0-9.46,0,7,7,0,1,0,9.46,0Z"></path><path class="cls-8" d="M355.75,93.22a22.17,22.17,0,0,0,0-3c-.78-9.7-7.35-18.35-17.16-18.35h-1.46c-10.45,0-17.47,8.47-17.47,18.93,0,0,.08,12.18,0,16.7.24,6.69,2.52,12.2,8,15.16,0,0,2.91,3.08,10.19,3.08s15.69-7.67,15.92-20.76Z"></path><path class="cls-8" d="M361.58,106.18a5.61,5.61,0,1,0-5.75,5.6v0a7.71,7.71,0,0,0,.84-.08A5.46,5.46,0,0,0,361.58,106.18Z"></path><path class="cls-3" d="M355.7,113.12a1,1,0,0,1,0-2,5,5,0,0,0,4.74-4.92c0-2.55-.82-3.93-2.67-4.47a3.1,3.1,0,0,0-3.64,1.51,1,1,0,0,1-1.85-.77,5.11,5.11,0,0,1,6.05-2.66c2.73.8,4.11,2.94,4.11,6.39A7,7,0,0,1,355.7,113.12Z"></path><path class="cls-3" d="M337.65,93.75a1,1,0,0,1-.75-.34A1,1,0,0,1,337,92a4.5,4.5,0,0,1,5.92-.33,1,1,0,0,1,.13,1.41,1,1,0,0,1-1.4.13,2.53,2.53,0,0,0-3.34.29A1,1,0,0,1,337.65,93.75Z"></path><path class="cls-3" d="M326.29,94.15a1,1,0,0,1-.64-.23,2.46,2.46,0,0,0-3-.13,1,1,0,0,1-1.11-1.66,4.47,4.47,0,0,1,5.38.27,1,1,0,0,1-.66,1.75Z"></path><path class="cls-3" d="M337.6,126.71c-.34,0-.54,0-.56,0h0c-10.68,0-18.2-7.89-18.2-19.2v-16c0-11.54,7.69-19.93,18.29-19.93h1.46a1,1,0,0,1,0,2h-1.46c-9.44,0-16.29,7.55-16.29,17.93v16c0,10.13,6.7,17.2,16.29,17.2.43,0,8.59.59,13-8.62a1,1,0,0,1,1.81.86,16.6,16.6,0,0,1-9.31,8.85A15,15,0,0,1,337.6,126.71Z"></path><path class="cls-3" d="M334.05,119.72c-5.82,0-6.61-4.42-7.09-6.37a.73.73,0,0,1,.7-.91h12.79a.73.73,0,0,1,.7.91C340.67,115.3,339.88,119.72,334.05,119.72Z"></path><path class="cls-8" d="M334.05,118.26a5.22,5.22,0,0,0,4.7-2.77,4.11,4.11,0,0,0-1.06-.14,4.36,4.36,0,0,0-4.1,2.89Z"></path><path class="cls-3" d="M332.32,110.68h-3.64a1,1,0,0,1-.78-.38,1,1,0,0,1-.19-.84l1.45-6.55a1,1,0,0,1,1.2-.76,1,1,0,0,1,.76,1.19l-1.19,5.34h2.39a1,1,0,0,1,0,2Z"></path><path class="cls-3" d="M321.94,110.23a7.84,7.84,0,1,1,7.83-7.83A7.84,7.84,0,0,1,321.94,110.23Zm0-13.67a5.84,5.84,0,1,0,5.83,5.84A5.85,5.85,0,0,0,321.94,96.56Z"></path><path class="cls-3" d="M341.43,110.23a7.84,7.84,0,1,1,7.83-7.83A7.84,7.84,0,0,1,341.43,110.23Zm0-13.67a5.84,5.84,0,1,0,5.83,5.84A5.85,5.85,0,0,0,341.43,96.56Z"></path><path class="cls-3" d="M328.47,105.87a1,1,0,0,1-1-1,4.23,4.23,0,0,1,8.08-1.78,1,1,0,1,1-1.82.84,2.23,2.23,0,0,0-4.26.94A1,1,0,0,1,328.47,105.87Z"></path><rect class="cls-3" x="322.42" y="101.36" width="2.55" height="5.1" rx="1.27"></rect><rect class="cls-3" x="337.73" y="101.36" width="2.55" height="5.1" rx="1.27"></rect><path class="cls-3" d="M347.48,69.2c-1.71-4.75-4.87-5.54-7.2-5.3a7.19,7.19,0,0,0-4.2,1.62,6.26,6.26,0,0,0-11-.43A7,7,0,0,0,314.42,71a6.87,6.87,0,0,0,1,3.57c-.58,6.36,1.14,14.73,5,14.73.12-.2.25-.38.38-.57a5.73,5.73,0,0,0,3.51,1.2,5.78,5.78,0,0,0,4.81-2.58,5.76,5.76,0,0,0,9.57-1.48,6.45,6.45,0,0,0,8.92.23c-.4,6.75,6.35,15.09,6.8,14.77,3.22-2.26,7.17,1.6,7.17,1.6l1.93-16.57C363.47,78.71,356.57,68.25,347.48,69.2Z"></path><path class="cls-3" d="M300.72,176.38h0a1,1,0,0,1-1-1c0-.76.65-18.72,3-26,3.85-11.73,9.72-17.61,19.63-19.66a1,1,0,0,1,1.18.77,1,1,0,0,1-.78,1.19c-9.23,1.91-14.49,7.22-18.12,18.33-2.31,7-2.95,25.29-3,25.47A1,1,0,0,1,300.72,176.38Z"></path><path class="cls-8" d="M304,202.86,301.26,204a5.68,5.68,0,0,0-3.47,4.67l-.61,5.88a8,8,0,0,0,1.05,4.12,8.33,8.33,0,0,0,7.35,4.2l9.51.14c2.93-.31,3.26-2.69,2.24-3.55l1.36-.06c1.28,0,2.31-1.48.83-2.84l-.92-.35c1.28.1,2.08-.07,2.54-.66a1.74,1.74,0,0,0-.39-2.43,4.91,4.91,0,0,0-2.37-.65s1.79-1.9,1.43-2.64a2.35,2.35,0,0,0-2-1.25h-5.63l-6.34-.27Z"></path><path class="cls-10" d="M299.26,205c1.15-1.28,5.27-2,5.27-2l.79,5.88-7.89-.4A24.33,24.33,0,0,1,299.26,205Z"></path><path class="cls-3" d="M318.43,213.38a1,1,0,0,1-.19-2,.8.8,0,0,0,.59-.45,1,1,0,0,0,.08-.69,1.33,1.33,0,0,0-1.17-.69l-14.06,0h0a1,1,0,0,1,0-2l14.1,0a3.36,3.36,0,0,1,2.93,1.81,2.92,2.92,0,0,1-.09,2.46,2.76,2.76,0,0,1-2,1.52A.68.68,0,0,1,318.43,213.38Z"></path><path class="cls-3" d="M307.6,217.32a1,1,0,0,1-1-1,1,1,0,0,1,1-1l11.05-.16c1,0,1.39-.31,1.49-.42s.16-.17.14-.52c0-.77-1-.82-1.08-.82l-11.72.25a1,1,0,0,1,0-2l11.77-.25a3,3,0,0,1,3.07,2.73,2.67,2.67,0,0,1-.67,2,4,4,0,0,1-2.91,1.07l-11.08.16Z"></path><path class="cls-3" d="M310.92,220.47h-3.37a1,1,0,0,1,0-2h0c2.72,0,10,0,11.05-.07a1,1,0,0,0,.91-.55c.12-.36-.2-.72-.4-.91a1,1,0,0,1,1.35-1.47,2.85,2.85,0,0,1,.94,3,3,3,0,0,1-2.64,1.9C317.94,220.46,313.92,220.47,310.92,220.47Z"></path><path class="cls-3" d="M305.78,209.09a1,1,0,0,1-1-.76l-1.19-4.82a1,1,0,1,1,1.94-.47l1.19,4.81a1,1,0,0,1-.73,1.22A1,1,0,0,1,305.78,209.09Z"></path><path class="cls-3" d="M315.15,224.3h-.06l-10.23-.55a9.1,9.1,0,0,1-3.8-1,8.36,8.36,0,0,1-4.63-6.76l-.21-5.83c0-3.47,1.56-6.11,4.34-7.26a11.42,11.42,0,0,1,3.1-.8l.72-.09a1,1,0,1,1,.23,2l-.72.08a9.94,9.94,0,0,0-2.57.67c-2.72,1.13-3.11,3.85-3.1,5.37l.2,5.81A6.44,6.44,0,0,0,302,221a7.23,7.23,0,0,0,3,.73l10.16.55a1.72,1.72,0,0,0,1.45-.79,1.67,1.67,0,0,0-.06-1.42,1,1,0,0,1,1.71-1,3.67,3.67,0,0,1,.14,3.34,3.6,3.6,0,0,1-3.11,1.91Z"></path><path class="cls-3" d="M355.89,101.67h-7.26a1,1,0,0,1,0-2h7.26a1,1,0,0,1,0,2Z"></path><path class="cls-3" d="M376.84,232.25a1,1,0,0,1-1-1l-.42-12.75a1,1,0,0,1,1-1h0a1,1,0,0,1,1,1l.42,12.75a1,1,0,0,1-1,1Z"></path><path class="cls-3" d="M356,126.44a1,1,0,0,1-1-1V112.35a1,1,0,0,1,2,0v13.09A1,1,0,0,1,356,126.44Z"></path><path class="cls-3" d="M338.24,141.57a1,1,0,0,1-.66-.24c-1-.9-8-9.36-8-13.12v-2.9a1,1,0,0,1,2,0v2.9c0,2.75,6.27,10.71,7.3,11.61a1,1,0,0,1,.1,1.41A1,1,0,0,1,338.24,141.57Z"></path><path class="cls-3" d="M316.79,95.7a7.95,7.95,0,0,1-6.1-13.06,8,8,0,0,1,3.1-12.48,1,1,0,1,1,.75,1.85,6,6,0,0,0-1.8,9.9,1,1,0,0,1,.32.73,1,1,0,0,1-.32.73,6,6,0,0,0,6.5,9.81,1,1,0,0,1,.82,1.83A8,8,0,0,1,316.79,95.7Z"></path><path class="cls-3" d="M361.34,104.25h-.12a1,1,0,0,1-.87-1.11l2.12-17.3c0-4.14-2.48-9.23-6-12.39a11.5,11.5,0,0,0-8.88-3.24,1,1,0,0,1-1-.66c-1.52-4.2-4.18-4.85-6.16-4.64a6.19,6.19,0,0,0-3.63,1.36,1,1,0,0,1-1.57-.3,5.26,5.26,0,0,0-9.24-.35,1.05,1.05,0,0,1-.63.46,1,1,0,0,1-.76-.13,6,6,0,0,0-9.13,5,1,1,0,1,1-2,0,8,8,0,0,1,11.35-7.2,7.26,7.26,0,0,1,11.6.27,8.91,8.91,0,0,1,3.8-1.15c2.11-.22,5.85.21,8,5.24a13.52,13.52,0,0,1,9.67,3.8c4,3.58,6.66,9.19,6.66,13.94,0,0,0,.08,0,.12l-2.13,17.36A1,1,0,0,1,361.34,104.25Z"></path><path class="cls-3" d="M354.34,101.87a1.22,1.22,0,0,1-.59-.16c-1.22-.68-6.46-7.45-7.13-13.76a7.33,7.33,0,0,1-3.38.82,7.42,7.42,0,0,1-4.32-1.37,6.75,6.75,0,0,1-9.74,1.41,6.77,6.77,0,0,1-8.8.88l-.56-.06a1,1,0,1,1,.2-2l.84.08a1,1,0,0,1,.51.21,4.69,4.69,0,0,0,2.9,1,4.74,4.74,0,0,0,4-2.14,1,1,0,0,1,1.58-.11,4.75,4.75,0,0,0,7.91-1.22,1,1,0,0,1,.74-.58,1,1,0,0,1,.89.28,5.44,5.44,0,0,0,7.54.2,1,1,0,0,1,1.67.8c-.34,5.67,4.86,12.74,6.08,13.75a1,1,0,0,1,.54.39,1,1,0,0,1-.24,1.39A1.08,1.08,0,0,1,354.34,101.87Zm-.54-1.82Z"></path></g><g id="character_2" data-name="character 2"><path class="cls-8" d="M236.6,139.19c-5.71-2.23-12,3.41-14.63,8.94-.86,1.76-9.55,53.54-9.55,53.54l23.84,12.66,9.46-71.58Z"></path><path class="cls-7" d="M236.72,232.38s-3.49,14.34-4.5,22.12c-2.5,19.17.7,48.67.7,48.67l19.92-.14,5.92-39.7,1.46,12.05L261,303l29-.34s2.2-31.67,3.37-39.17c2.25-14.46.88-32.37.88-32.37s-21.41,3.19-25.75,3.25C259.84,234.49,236.72,232.38,236.72,232.38Z"></path><path class="cls-8" d="M259.09,153c-14.67-1-19.17-10.23-24.36-13.28l-.59,0,1.08,14c-1.11,6.42-5.64,18.66-4.67,25.1l3.71,6.57L233.59,220c-.25,4.55,2.25,11.25,2.25,11.25s21,3.42,28.63,3.88c6.13.36,32.84-2.24,32.62-8.38L294,141.43C282.32,143.32,270.79,153.81,259.09,153Z"></path><path class="cls-10" d="M279.22,159.75l3,28.88s-6.14,4.55-5.76,4.55,9.26-1.93,9.26-1.93Z"></path><path class="cls-3" d="M264.45,235.69c-1.42,0-2.88,0-4.39-.06A168.72,168.72,0,0,1,233.13,233a1,1,0,0,1-.79-.93,93.53,93.53,0,0,1,.47-10.12c.71-9.18,1.66-21.76-.21-34.53a1,1,0,1,1,2-.29c1.91,13,.94,25.69.23,35-.29,3.79-.53,6.88-.5,9.09a174.68,174.68,0,0,0,25.81,2.46c21.55.6,33.25-3.37,35.2-4.79l-.6-13.42a1,1,0,1,1,2-.09l.63,13.88a1,1,0,0,1-.21.65C295.52,232,284.08,235.69,264.45,235.69Z"></path><path class="cls-3" d="M234.67,186.42a1,1,0,0,1-.84-.47c-6.52-10.44-3.8-18-1.62-24,.95-2.62,1.84-5.09,1.84-7.42a1,1,0,0,1,2,0c0,2.68-1,5.31-2,8.1-2.14,5.94-4.57,12.67,1.43,22.28a1,1,0,0,1-.85,1.53Z"></path><path class="cls-2" d="M303.34,134.25c-5.37-4.25-7.12-4-12.49-5.46-.47-.13-2.28-.61-2.35-1.67a41.67,41.67,0,0,0,4.33-18.71c0-20.18-13.75-36.79-30.7-36.54-19.06.28-30.71,16.36-30.71,36.54a41.66,41.66,0,0,0,4.66,19.36,40,40,0,0,0-7.83,3c-2.32,1.28-3.21,4.15-3.55,6.17-.18,1,1.65,4.44,2.7,4.29,1.92-.29,3.78-2.76,5.66-2.21a7.68,7.68,0,0,1,1.67.74c5.19,3.05,9.69,12.26,24.36,13.28,11.7.81,23.23-9.68,34.92-11.57.44-.07.89-.13,1.33-.18,6.09-.63,5.85,9.32,8.63,10.13C305.25,151.75,306.92,137.08,303.34,134.25Z"></path><path class="cls-4" d="M282.72,80.38s6.5,11.5,5,31.87a45.33,45.33,0,0,1-9.88,24.25s11.29-7.88,13.88-18.12C295.22,104.5,290.72,86.5,282.72,80.38Z"></path><path class="cls-4" d="M231.51,129.75s5.5,4.75,9.91,5.58,4.84-.33,4.84-.33l-10.18-7.23A40.38,40.38,0,0,1,231.51,129.75Z"></path><path class="cls-4" d="M276.59,137.75s5.58-.33,9.17-2.42,8.25-5.16,8.25-5.16-5.34-2-5.51-3S282.17,135.25,276.59,137.75Z"></path><path class="cls-10" d="M274.08,105.41c-10.17-4.09-12.26-15.07-12.26-15.07s-2.25,3.09-10.49,5.77a19,19,0,0,1-11.59.4c-.29,1.11-.37,10-.43,14.67.24,6.89,2.58,12.56,8.21,15.6,0,0,3,3.17,10.49,3.17s16.31-5,16.56-18.48C274.57,111.47,274.47,105.56,274.08,105.41Z"></path><path class="cls-8" d="M311.54,190.13c-.9-4-5.13-25.6-7.56-37.23-.87-4.18-3.42-12.21-15.47-10-4.95.91-10.59,9.42-9.49,14.34l7.61,34-24.33,4.83a3.09,3.09,0,0,0-2.62,3.33l3.45,15.39c.16,1.82,1,2.3,2.83,2.34,8.71.2,28.47-2.34,33.13-3.12C312.8,211.71,313.92,200.81,311.54,190.13Z"></path><path class="cls-10" d="M311.54,190.13c-.9-4-5.12-25.55-7.55-37.19l-.82-4.69c-.74-3.88-4.87-8-8.74-7.15a12.85,12.85,0,0,0-1.26.32l-13.25,5.08s7.92-3.75,15.75-.58c3.5,1.41,4.54,5.69,4.67,6.33,2.43,11.63,6.1,30.73,7,34.75,2.38,10.68,4.05,20-9.67,22.33-4.32.73-28.82,4.16-34.57,3.41.17,1.79.7,4,2.51,4,8.71.2,28.82-2,33.48-2.79C312.8,211.71,313.92,200.81,311.54,190.13Z"></path><path class="cls-11" d="M242.13,184.35s1.71,0,3.16,3.2S252,203.26,251.9,203s2.73,10.76,4,15.66a2.05,2.05,0,0,1-1.78,2.56l-9.28.93s-7.27,2.2-9.33-1.25-13.33-28.71-13.33-28.71-1-3.1,1.37-4Z"></path><path class="cls-3" d="M240,224.29c-2.56,0-4.92-1.61-6.33-4.34l-12.31-27.76a4.09,4.09,0,0,1,.81-4.94,4.15,4.15,0,0,1,1.94-.94l16-3.1a4.94,4.94,0,0,1,5.42,3.14c.84,1.86,3,7.15,6.46,15.73a1,1,0,1,1-1.86.74c-3.43-8.55-5.59-13.81-6.42-15.64-.26-.57-1.25-2.39-3.22-2l-16,3.09a2.14,2.14,0,0,0-1,.49,2.09,2.09,0,0,0-.33,2.55l12.32,27.77c.37.72,1.86,3.21,4.52,3.21h0L255,220.43a1,1,0,1,1,.24,2l-15,1.87Z"></path><path class="cls-3" d="M227.66,191.43a1,1,0,0,1-1-.81,1,1,0,0,1,.79-1.17L239,187.24a1,1,0,0,1,.38,2l-11.48,2.22Z"></path><path class="cls-10" d="M251.63,202.81l-.16.62-8.09.88-5.77.57a2.41,2.41,0,0,0-2,1.49c-.29.79,1.74,2.55,1.74,2.55l-.26,0a3.18,3.18,0,0,0-2.26,1.07,1.58,1.58,0,0,0,0,2.35c.53.56,1.37.65,2.66.42l-.89.44c-1.38,1.56-.18,2.92,1.13,2.83l1.4-.08c-.95,1-.43,2.75,2.6,2.77l4.59-.29,9.36-.37,6-2.69-2.25-15.6-7.43-2.51-1.11.32Z"></path><polygon class="cls-12" points="259.51 199.79 256.62 198.48 250.24 197.62 250.24 203.74 259.9 202.51 259.51 199.79"></polygon><path class="cls-3" d="M257.27,199.93a.75.75,0,0,1-.21,0l-2.91-.6a12.19,12.19,0,0,0-3.07-.45h-.66a1,1,0,0,1,0-2h.67a14.3,14.3,0,0,1,3.51.5l2.85.59a1,1,0,0,1,.77,1.19A1,1,0,0,1,257.27,199.93Z"></path><path class="cls-3" d="M237.33,209.85h-.09a2.85,2.85,0,0,1-2.18-1.34,3,3,0,0,1-.34-2.48,3.42,3.42,0,0,1,2.74-2.14l14.48-1.43a1,1,0,1,1,.2,2l-14.44,1.43a1.38,1.38,0,0,0-1.1.84,1,1,0,0,0,.16.72.85.85,0,0,0,.67.42,1,1,0,0,1-.1,2Z"></path><path class="cls-3" d="M237.09,213.75a3.77,3.77,0,0,1-2.6-.8,2.66,2.66,0,0,1-.87-1.91,3,3,0,0,1,2.77-3.08l12.14-1a1,1,0,0,1,.15,2l-12.07.95s-1,.17-1,1a.69.69,0,0,0,.21.53,2.45,2.45,0,0,0,1.62.28l11.49-.93a1,1,0,0,1,1.08.92,1,1,0,0,1-.92,1.07l-11.51.94Z"></path><path class="cls-3" d="M237.74,217.05A3,3,0,0,1,235,215.4a2.88,2.88,0,0,1,.64-3.17,1,1,0,0,1,1.49,1.33c-.19.22-.49.64-.32,1a1.08,1.08,0,0,0,1,.48c1,0,8-.55,11.53-.83a1,1,0,0,1,1.07.92,1,1,0,0,1-.92,1.08c-.41,0-10.28.81-11.64.83Z"></path><path class="cls-3" d="M241.89,220c-2.16,0-3.11-.83-3.54-1.51a3,3,0,0,1-.08-2.85,1,1,0,0,1,1.8.86,1,1,0,0,0,0,.93c.22.36.87.56,1.79.57l11.65-.72a11.12,11.12,0,0,0,2.48-.5,13.28,13.28,0,0,0,1.55-.69,7,7,0,0,1,.94-.41,1,1,0,0,1,1.27.62,1,1,0,0,1-.62,1.27,5.68,5.68,0,0,0-.68.3,14,14,0,0,1-1.74.77,12.61,12.61,0,0,1-3.06.63Z"></path><path class="cls-3" d="M251.17,203.79a1,1,0,0,1-.93-.64l-2.08-5.46A1,1,0,1,1,250,197l2.09,5.46a1,1,0,0,1-.58,1.29A1.13,1.13,0,0,1,251.17,203.79Z"></path><path class="cls-3" d="M266.54,218.42c-2.42,0-3.58-1.22-4.66-3.19a.94.94,0,0,1-.1-.28l-3.16-15.67a.43.43,0,0,1,0-.11,4.1,4.1,0,0,1,3.46-4.41l30.14-4.37a1,1,0,0,1,1.13.84,1,1,0,0,1-.85,1.14l-30.12,4.37a2.1,2.1,0,0,0-1.77,2.2l3.12,15.46c1,1.75,1.68,2,2.87,2,9.08-.08,27-2.76,33.1-3.78,4.69-.79,7.91-2.56,9.84-5.42,2.46-3.65,2.79-9,1-16.87-.42-1.89-1.37-6.51-2.46-11.86-1.92-9.4-4.56-22.27-5.07-23.73a1,1,0,1,1,1.88-.66c.52,1.47,2.55,11.3,5.15,24,1.09,5.34,2,9.95,2.45,11.82,1.88,8.43,1.46,14.29-1.33,18.43-2.22,3.29-6,5.4-11.17,6.27-6.18,1-24.21,3.73-33.41,3.81Z"></path><path class="cls-3" d="M286.63,192.23a1,1,0,0,1-1-.79l-7.54-34.84a1,1,0,0,1,.76-1.19,1,1,0,0,1,1.19.76L287.61,191a1,1,0,0,1-.77,1.19A.75.75,0,0,1,286.63,192.23Z"></path><path class="cls-3" d="M258.29,104.22a.91.91,0,0,1-.64-.24,1.85,1.85,0,0,0-2.41,0,1,1,0,0,1-1.41-.15,1,1,0,0,1,.15-1.4,3.84,3.84,0,0,1,5,.06,1,1,0,0,1-.66,1.75Z"></path><path class="cls-3" d="M244.59,104.18a1,1,0,0,1-.64-1.76,3.8,3.8,0,0,1,4.42-.14,1,1,0,0,1-1.06,1.69,1.94,1.94,0,0,0-2.08,0A1,1,0,0,1,244.59,104.18Z"></path><path class="cls-3" d="M253.89,124.51c-3.77,0-4.29-2.86-4.6-4.13a.47.47,0,0,1,.46-.59H258a.48.48,0,0,1,.46.59C258.18,121.65,257.67,124.51,253.89,124.51Z"></path><path class="cls-3" d="M253.89,125.51c-4.39,0-5.21-3.42-5.53-4.71l0-.18a1.48,1.48,0,0,1,1.43-1.83H258a1.48,1.48,0,0,1,1.43,1.83l-.05.18C259.11,122.09,258.28,125.51,253.89,125.51Zm-3.46-4.72a3.57,3.57,0,0,0,6.93,0Zm7.1-.65h0Zm-7.27,0Z"></path><path class="cls-12" d="M253.89,123.57a3.38,3.38,0,0,0,3.05-1.8,2.61,2.61,0,0,0-.69-.09,2.83,2.83,0,0,0-2.66,1.87Z"></path><path class="cls-3" d="M252.28,117.05H250a2.14,2.14,0,0,1-2.11-2.62l1.18-5.33a1,1,0,0,1,1.2-.76,1,1,0,0,1,.76,1.19l-1.19,5.33a.15.15,0,0,0,0,.13.18.18,0,0,0,.13.06h2.3a1,1,0,0,1,0,2Z"></path><rect class="cls-3" x="244.5" y="106.98" width="2.62" height="5.24" rx="1.31"></rect><rect class="cls-3" x="254.7" y="106.98" width="2.62" height="5.24" rx="1.31"></rect><path class="cls-3" d="M273,89.62c-3-11.11-16.82-13.54-27-7.21-5.91,3.68-6.73,13.94-6.73,13.94a23.39,23.39,0,0,0,12-.24c8.24-2.68,10.49-5.77,10.49-5.77s1.53,11.22,11.7,15.31C273.91,105.8,273.84,92.6,273,89.62Z"></path><path class="cls-3" d="M212.59,199.88l-.15,0a1,1,0,0,1-.84-1.13c.26-1.75,6.44-42.74,7.41-46,2.69-9.11,7.89-13.47,10.26-14.51a1,1,0,1,1,.8,1.83c-1.67.73-6.57,4.54-9.15,13.24-.74,2.52-5.13,31-7.34,45.74A1,1,0,0,1,212.59,199.88Z"></path><path class="cls-3" d="M276.66,138.09a1,1,0,0,1-.49-1.87c11.76-6.65,16.25-14.78,16-29-.31-19.81-12.75-34.84-28.93-35-8.54,0-15.5,2.49-20.63,7.59-6.34,6.29-9.69,16.24-9.69,28.75,0,13.24,3.92,20.57,13.54,25.31a1,1,0,1,1-.88,1.79c-10.28-5.05-14.66-13.16-14.66-27.1,0-13.06,3.55-23.49,10.28-30.17,5.53-5.49,12.95-8.24,22-8.17,17,.13,30.6,16.35,30.92,36.93.24,14.87-4.7,23.78-17,30.76A1,1,0,0,1,276.66,138.09Z"></path><path class="cls-3" d="M305.47,149.5h-.18a1,1,0,0,1-.81-1.17c2.71-15.07-8.05-17.58-12.65-18.64a8,8,0,0,1-1.86-.56,1,1,0,0,1,1-1.74,10.93,10.93,0,0,0,1.32.35c4.26,1,17.22,4,14.17,21A1,1,0,0,1,305.47,149.5Z"></path><path class="cls-3" d="M260.61,154h-.15c-10.89-.09-16.91-5.69-21.3-9.78-3.69-3.44-5.92-5.32-8.88-4.2a1,1,0,0,1-.71-1.87c4.27-1.62,7.36,1.26,11,4.61,4.39,4.08,9.85,9.16,20,9.24,5.92,0,12.26-3,18.36-5.9a80.5,80.5,0,0,1,11.86-4.93c3.67-1.07,6.76-.77,9.19.9,4.21,2.88,4.77,8.76,4.79,9a1,1,0,0,1-2,.18c0-.06-.51-5.21-3.94-7.55-1.91-1.3-4.43-1.51-7.5-.62a77.69,77.69,0,0,0-11.54,4.81C273.44,150.9,267,154,260.61,154Z"></path><path class="cls-3" d="M225,140.81a1,1,0,0,1-.94-.66,9,9,0,0,1,5.45-11.36l4-1.56a1,1,0,1,1,.72,1.87l-4,1.56c-2.65,1-5.82,4.45-4.27,8.82a1,1,0,0,1-.61,1.28A1.26,1.26,0,0,1,225,140.81Z"></path><path class="cls-3" d="M256.22,130.69c-10.79,0-17.75-7.64-17.75-19.47l-.12-11.39c0-7.5,2.06-13.46,6-17.27,3.38-3.29,7.92-4.89,13.54-4.75,17.16.41,17.14,13.94,17.13,27v7.86C275,118.92,271.05,130.69,256.22,130.69Zm1-50.89c-4.78,0-8.64,1.41-11.5,4.19-3.5,3.42-5.35,8.89-5.35,15.83l.12,11.39c0,10.79,6,17.48,15.75,17.48,13.25,0,16.75-10.46,16.75-16v-7.87c0-13.23,0-24.66-15.18-25Z"></path><path class="cls-3" d="M263,140.88a23.94,23.94,0,0,1-8.3-1.68,1,1,0,1,1,.77-1.84c.06,0,6.33,2.59,11.07,1a1,1,0,0,1,1.27.63,1,1,0,0,1-.63,1.27A13,13,0,0,1,263,140.88Z"></path><path class="cls-3" d="M261.26,303.33h0a1,1,0,0,1-1-1c.16-6.8-.09-25.72-1.91-37.66-.85-5.57-2.81-9-4.39-9.91a1,1,0,0,1,1-1.73c2.46,1.44,4.51,5.78,5.36,11.34,1.83,12.07,2.09,31.16,1.93,38A1,1,0,0,1,261.26,303.33Z"></path><path class="cls-3" d="M290.1,303.44h-.2a1.05,1.05,0,0,1-.93-1.11.59.59,0,0,1,0-.14c0-.26.07-.85.14-1.73.43-5.11,1.74-20.66,3.47-36.06a181.84,181.84,0,0,0,.87-30.31,1,1,0,0,1,.92-1.08,1,1,0,0,1,1.07.93,184.41,184.41,0,0,1-.88,30.68c-1.72,15.37-3,30.91-3.46,36-.06.72-.1,1.27-.16,1.67a.33.33,0,0,1,0,.14h0C290.81,303.24,290.62,303.44,290.1,303.44Z"></path><path class="cls-3" d="M252.76,303.17h-.13a1,1,0,0,1-.87-1.12c0-.24,3-24.12,4.51-32.87a1,1,0,0,1,1.15-.82,1,1,0,0,1,.82,1.15c-1.48,8.71-4.46,32.55-4.49,32.79A1,1,0,0,1,252.76,303.17Z"></path><path class="cls-3" d="M232.26,303a1,1,0,0,1-1-.91c-4-42.86,3.13-67,3.21-67.21a1,1,0,1,1,1.91.58c-.07.23-7.06,24-3.13,66.45a1,1,0,0,1-.9,1.09Z"></path><path class="cls-3" d="M273.52,106.65a1,1,0,0,1-.37-.07c-8.17-3.28-11-10.79-11.93-14.27a30,30,0,0,1-9.58,4.75,24.29,24.29,0,0,1-12.6.26c-.53-.15-.12-.33,0-.86s0-1.22.51-1.07A22.78,22.78,0,0,0,251,95.16c7.73-2.52,10-5.39,10-5.41a1,1,0,0,1,1.8.46c0,.1,1.58,10.7,11.08,14.51a1,1,0,0,1-.38,1.93Z"></path></g><g id="Alice"><path class="cls-2" d="M73.34,204.5c-.37,5.38,7.88,55.88,8.25,55.88s6.19-9.25,6.19-9.25l-2.69-15.38L88,205.63Z"></path><path class="cls-5" d="M81.84,181.08c-.19-.27.25,8.42-8.17,12.67-2.46,1.25-11.08,2.25-7.41,3.33s8.91,1.5,10.25,4.17.41-5.75,2.16-6.58S85.34,186.17,81.84,181.08Z"></path><path class="cls-8" d="M89,200.75l-1.3-31.58c-.08-2.16-3-11.94-4.5-13.5l-4.83-4.92L74.85,159A46.75,46.75,0,0,1,57,165.38c-10.21,1.35-26.69-9.25-31.33-15.63a19.36,19.36,0,0,0-10.48,9.84l-.24.49C13.57,163,10,187.69,8.42,199.92c-.52,4.14-1.66,12.5,7.75,14.83l7.76,1.32-1.57,15.6s16,3.6,22.19,3.78c7.67.22,33.41-2.17,33.41-2.17l-1.24-30.57Z"></path><g id="Capa_23" data-name="Capa 23"><path class="cls-3" d="M82.84,114.3a6.57,6.57,0,0,0-1.51-4.19,9.39,9.39,0,0,0-1.58-9.62,6.26,6.26,0,0,0-3.22-7.76,12.49,12.49,0,0,0-9.21-9.1,8.16,8.16,0,0,0-1.77-2.08,7.92,7.92,0,0,0-8.21-1.07c-4-3.11-8.47-3.14-11.93-.19-6.95-2.48-11.07,2.18-11.53,5.63-5.54-.33-10.08,3.84-9.92,8.59-2,1-6.5,4.52-3.79,11a6.23,6.23,0,0,0-.94,9.19,6.23,6.23,0,0,0,3.69,10.33A6.24,6.24,0,0,0,28,135a5.92,5.92,0,0,0,1.34-.15c1.23,4.09,6,5.95,10.1,4.83a7.25,7.25,0,0,0,3.88-2.45v-8.26c-.54-.75-5.29.66-6.53-5.38a5.87,5.87,0,0,1,4.6-6.7s4.69,2.31,4.69,2.31a12.2,12.2,0,0,0,2.11-8.39c2.48,1.46,6.66,0,7.7-2.88a7.39,7.39,0,0,0,4.22,1.27,5.18,5.18,0,0,0,4.41-2.69,5.91,5.91,0,0,0,8,2.2,16.28,16.28,0,0,1,.76,5v4.61s.23,6.4,0,9.79c0,.25,0,.51,0,.76l.4,0a6.59,6.59,0,0,0,6.58-6.58,6.7,6.7,0,0,0-.43-2.34A6.57,6.57,0,0,0,82.84,114.3Z"></path><path class="cls-2" d="M73.23,118.23v-4.61a16.28,16.28,0,0,0-.76-5,5.91,5.91,0,0,1-8-2.2,5.18,5.18,0,0,1-4.41,2.69,7.39,7.39,0,0,1-4.22-1.27c-1,2.89-5.22,4.34-7.7,2.88a12.2,12.2,0,0,1-2.11,8.39l-2.72-1.36a4.3,4.3,0,0,0-4.92.66,5.52,5.52,0,0,0-1.65,5.09c1.24,6,6,4.63,6.53,5.38v20.14l-6.87.05c-3.46,0-8-.55-10.67,1.6l3,3.21S41.9,165.64,56.4,165c20.63-1,22-11.44,22-11.44a4.62,4.62,0,0,0-4.54-4.44c-2.47-.05-5.75-.08-9.34-.09v-7.43a4.15,4.15,0,0,0,.48-.3,15.41,15.41,0,0,0,8.16-12.49c0-.25,0-.51,0-.76C73.46,124.63,73.23,118.23,73.23,118.23Z"></path><path class="cls-4" d="M25.22,149.06l18.5-.08v1a1.56,1.56,0,0,1-1.57,1.56s-8.2.56-10.93.91a32,32,0,0,0-3.35.9Z"></path><path class="cls-4" d="M65.53,149l9.37.69a3.76,3.76,0,0,1,3.51,4.18v.07a13.77,13.77,0,0,0-6.75-2.3l-6.12-.08Z"></path><path class="cls-5" d="M25.9,150c-10.21,2.8-11.45,10.79-12.59,18.8,0,0,4.44-12.45,14.8-15.38C29,153.19,26,150.12,25.9,150Z"></path><path class="cls-5" d="M81.84,181.08c-.19-.27.25,8.42-8.17,12.67-2.46,1.25-11.08,2.25-7.41,3.33s8.91,1.5,10.25,4.17.41-5.75,2.16-6.58S85.34,186.17,81.84,181.08Z"></path><g id="_Trazado_3" data-name=" Trazado 3"><path class="cls-4" d="M65,141.8s.11,4-6.19,4.29c-11.73.6-13.06-10.37-13.06-10.37s4.5,6.37,11.31,7.25A15.26,15.26,0,0,0,65,141.8Z"></path></g><path class="cls-3" d="M42.85,149.75a1,1,0,0,1-1-1V129a1,1,0,0,1,2,0v19.78A1,1,0,0,1,42.85,149.75Z"></path><path class="cls-3" d="M65,154.08a1,1,0,0,1-1-1V141.8a1,1,0,0,1,2,0v11.28A1,1,0,0,1,65,154.08Z"></path><g id="_Trazado_4" data-name=" Trazado 4"><path class="cls-3" d="M62,134.93c-2.9,0-5.25-1.18-6-3a1,1,0,0,1,1.86-.74c.41,1,2.1,1.74,4.12,1.74s3.71-.72,4.12-1.74a1,1,0,0,1,1.3-.56,1,1,0,0,1,.56,1.3C67.27,133.75,64.93,134.93,62,134.93Z"></path></g><g id="_Trazado_5" data-name=" Trazado 5"><path class="cls-3" d="M67.17,117.76a1,1,0,0,1-.82-.44,1,1,0,0,1,.26-1.39,4.38,4.38,0,0,1,4.93-.12,1,1,0,0,1-1.14,1.65,2.37,2.37,0,0,0-2.66.12A1,1,0,0,1,67.17,117.76Z"></path></g><g id="_Trazado_6" data-name=" Trazado 6"><path class="cls-3" d="M59.39,117.78a1,1,0,0,1-.6-.2,3.3,3.3,0,0,0-3.85,0,1,1,0,0,1-1.2-1.6A5.27,5.27,0,0,1,60,116a1,1,0,0,1,.2,1.4A1,1,0,0,1,59.39,117.78Z"></path></g><path class="cls-3" d="M28.09,201h-.16a1,1,0,0,1-.83-1.15l4.63-28.37a1,1,0,1,1,2,.32l-4.62,28.37A1,1,0,0,1,28.09,201Z"></path><path class="cls-3" d="M77.17,202.83h0a1,1,0,0,1-1-1l.07-2a11.09,11.09,0,0,1,2.48-6.67c4.7-5.18,3.71-9.17,2.44-14.22l-.21-.85L78.06,168a1,1,0,1,1,1.93-.55l3.11,11c1.3,5.19,2.52,10.09-2.85,16a9.19,9.19,0,0,0-2,5.45l-.06,2A1,1,0,0,1,77.17,202.83Z"></path><path class="cls-3" d="M59.2,143.84c-4.76,0-10.48-2-13.31-7.61a1,1,0,0,1,1.78-.91c3.5,6.89,11.63,7.06,15,6.06,6.6-1.95,9.55-8.69,9.55-14.5V113.62A15.42,15.42,0,0,0,56.82,98.21a1,1,0,0,1,0-2,17.43,17.43,0,0,1,17.41,17.41v13.26c0,7.88-4.41,14.48-11,16.42A14.44,14.44,0,0,1,59.2,143.84Z"></path><g id="_Trazado_7" data-name=" Trazado 7"><path class="cls-3" d="M63,129.14a1,1,0,1,1,0-2,1.61,1.61,0,0,0,.89-.15,1.67,1.67,0,0,0,0-.54L63,122.66a1,1,0,0,1,2-.4l.76,3.79a2.64,2.64,0,0,1-.37,2.21A3,3,0,0,1,63,129.14Z"></path></g><path class="cls-3" d="M57.3,119.3h0a1.27,1.27,0,0,1,1.26,1.27v2.52a1.26,1.26,0,0,1-1.26,1.26h0A1.26,1.26,0,0,1,56,123.09v-2.52A1.27,1.27,0,0,1,57.3,119.3Z"></path><path class="cls-3" d="M69,119.3h0a1.27,1.27,0,0,1,1.26,1.27v2.52A1.26,1.26,0,0,1,69,124.35h0a1.25,1.25,0,0,1-1.26-1.26v-2.52A1.26,1.26,0,0,1,69,119.3Z"></path><g id="_Trazado_8" data-name=" Trazado 8"><path class="cls-3" d="M11,213.88a1,1,0,0,1-.66-.26c-3.43-3-4-8.52-3.55-11.47l5.66-36.8c.4-2.81,3.13-16.92,17.41-17.37,2.33-.08,9.37-.6,9.44-.6a1,1,0,0,1,.15,2c-.3,0-7.16.53-9.53.6-12.68.41-15.13,13.13-15.49,15.67L8.8,202.45c-.37,2.42.09,7.2,2.89,9.68a1,1,0,0,1,.09,1.41A1,1,0,0,1,11,213.88Z"></path></g><g id="_Trazado_9" data-name=" Trazado 9"><path class="cls-3" d="M88,201.25a1,1,0,0,1-1-1c0-.24-.29-24.64-1-32.54-.3-3.33-2.06-10.05-5.5-13.93-2.74-3.08-6.77-3.87-12-4.1a1,1,0,0,1,.09-2c5,.22,10,1,13.39,4.77,4.24,4.77,5.77,12.5,6,15.08.72,8,1,32.45,1,32.7a1,1,0,0,1-1,1Z"></path></g><path class="cls-3" d="M56.88,166c-16,0-25.13-7.17-30-13.18a1,1,0,1,1,1.55-1.26C33,157.2,41.69,164,56.88,164c9.95,0,17.69-3.85,20.21-10a1,1,0,0,1,1.85.75C76.11,161.64,67.66,166,56.88,166Z"></path><circle class="cls-3" cx="43.35" cy="125.89" r="0.99"></circle><path class="cls-3" d="M43.06,130a7.64,7.64,0,0,1-4.38-1.41,7,7,0,0,1-3-4.66c-.5-3.49.79-6.24,3.53-7.55A5.34,5.34,0,0,1,46,118.2a1,1,0,0,1-1.72,1,3.3,3.3,0,0,0-4.2-1c-2.47,1.18-2.67,3.62-2.41,5.45a5,5,0,0,0,2.13,3.31,5.52,5.52,0,0,0,3.93,1,1,1,0,1,1,.28,2A6.37,6.37,0,0,1,43.06,130Z"></path><path class="cls-3" d="M69.61,97.57c-2,0-11.46-7.88-14.87-7.12a6.24,6.24,0,0,0-3.54,2.21c-.25.38-.5.76-.76,1.14a6.7,6.7,0,0,0-3.53-.13,6.34,6.34,0,0,0-6.57,10,6.36,6.36,0,0,0-5.05,7.39c.34,1.8,3.34,4,6.08,5.58,2.44,1.44,4.69,2.47,4.69,2.47a12.2,12.2,0,0,0,2.11-8.39c2.48,1.46,6.66,0,7.7-2.88a7.39,7.39,0,0,0,4.22,1.27,5.18,5.18,0,0,0,4.41-2.69,5.92,5.92,0,1,0,5.11-8.89Z"></path></g><path class="cls-2" d="M70.55,215.46l-5.38.37c-.68-.06-5.69,1.89-7.2,1.42-.29-.09-20.15-9.88-29.75-14.11-4.24-1.87-10-2.61-13.13,1.24a8.28,8.28,0,0,0-1.69,7.23c.91,3.95,5.27,6.39,8.69,7.33,8.81,2.42,34.78,10,34.78,10l4.32,3.86a6.22,6.22,0,0,0,3.57,1.55c3.87.36,11.95,1.06,12.52.78.75-.38,2-1.5,1.94-2.44,0,0,2.68-.13,3.06-.94a6,6,0,0,0-.06-2.69s1.56-.62,1.87-1.56S83,225.19,83,225.19s.69-3.31-.13-4.06-13.5-1-13.5-1Z"></path><path class="cls-15" d="M24.47,233.25s-3.37,11.79-2,18.92c3.34,18,7.17,50.66,7.17,50.66l19.83-.16,3.84-40.17,6.66,24.33,2.5,15.84,24,.16L76.76,236Z"></path><path class="cls-10" d="M83.9,225.77l9-21.39c.88-2.09-.35-3-2.1-2.77l-12.76,1.18c-.46.08-2.2.06-3.66,3.15l-5.68,14H80.51s2.66.18,3.08,2.18A15.2,15.2,0,0,1,83.9,225.77Z"></path><polygon class="cls-4" points="64.09 216.13 66.92 215.75 70.34 215.67 68.47 220.25 59.65 218.13 64.09 216.13"></polygon><path class="cls-3" d="M81.39,225.94a1,1,0,0,1-.17-2,.9.9,0,0,0,.7-.49,1.08,1.08,0,0,0,.11-.8,1.54,1.54,0,0,0-1.29-.82l-14.65-.43a1,1,0,0,1,0-2h0l14.69.43a3.54,3.54,0,0,1,3,2,3,3,0,0,1-.17,2.57,2.91,2.91,0,0,1-2.13,1.53Z"></path><path class="cls-3" d="M81.64,229.63,69.75,229a1,1,0,0,1,.1-2l11.83.63c1.51,0,1.57-.52,1.6-.83a.49.49,0,0,0-.08-.41,1.79,1.79,0,0,0-1-.41l-12.45-.48a1,1,0,0,1,0-2h0l12.47.48a3.74,3.74,0,0,1,2.46,1.13,2.45,2.45,0,0,1,.54,1.92C85.14,228.2,84.39,229.6,81.64,229.63Z"></path><path class="cls-3" d="M80.3,233.13c-2.14,0-10-.49-10.94-.55a1,1,0,1,1,.13-2c2.7.17,10,.6,11.05.54a1.08,1.08,0,0,0,1-.52c.1-.28-.06-.66-.45-1a1,1,0,1,1,1.4-1.43,2.78,2.78,0,0,1-1.84,5Z"></path><path class="cls-3" d="M83.9,226.77a1.14,1.14,0,0,1-.4-.08,1,1,0,0,1-.51-1.32l9-20.6A1.82,1.82,0,0,0,92,203a.91.91,0,0,0-.88-.27L78.06,203.8c-.49.06-1.64.21-2.75,2.57l-5.67,13.9a1,1,0,0,1-1.85-.75l5.69-14c1.6-3.39,3.65-3.66,4.32-3.75l.18,0,13-1a2.84,2.84,0,0,1,2.69,1,3.7,3.7,0,0,1,.22,3.76l-9,20.62A1,1,0,0,1,83.9,226.77Z"></path><path class="cls-3" d="M78.92,207.17a1,1,0,0,1-.06-2l9.54-.6a1,1,0,0,1,.13,2l-9.54.61Z"></path><path class="cls-3" d="M76.34,236.25h0L66,235.71c-1-.05-3.46-.5-4.57-1.5s-4.46-3.7-5.21-4.31c-2.36-.7-26-7.72-34.35-10-3.9-1.07-8.41-3.75-9.4-8.07a9.29,9.29,0,0,1,1.89-8.09c3.47-4.23,9.67-3.56,14.31-1.51,7.17,3.16,20.06,9.42,26.25,12.43,1.84.89,3.29,1.59,3.46,1.66.62.19,3.29-.59,4.58-1a10.12,10.12,0,0,1,2.22-.53h0l5.33-.37a1,1,0,0,1,1.07.93,1,1,0,0,1-.93,1.07l-5.38.37h-.16c-.13,0-1,.26-1.6.45-2.57.74-4.63,1.29-5.81.93-.13,0-.14-.05-3.66-1.76-6.18-3-19-9.25-26.19-12.39-4-1.75-9.19-2.42-12,.95a7.31,7.31,0,0,0-1.49,6.34c.8,3.5,4.8,5.75,8,6.62,8.73,2.4,34.33,10,34.59,10.07a1.11,1.11,0,0,1,.34.18c.17.14,4.11,3.3,5.45,4.51a7.37,7.37,0,0,0,3.34,1l10.26.54c1.38-.12,1.71-.54,1.77-.66a1,1,0,0,0-.13-.87,1,1,0,0,1,1.74-1,2.93,2.93,0,0,1,.16,2.8c-.54,1-1.7,1.58-3.45,1.72Z"></path><path class="cls-3" d="M48.34,236.35c-16.83,0-26.38-3.61-26.86-3.79a1,1,0,0,1-.62-1.11l1.75-9.87a1,1,0,1,1,2,.35L23,231c3.22,1,16.32,4.71,36.53,2.88a1,1,0,1,1,.18,2C55.6,236.2,51.81,236.35,48.34,236.35Z"></path><path class="cls-3" d="M29,303.38a1,1,0,0,1-1-.9c0-.2-2-20.09-6-41.46-3.16-16.95.33-25.32.48-25.67a1,1,0,0,1,1.84.79c0,.09-3.39,8.25-.35,24.51,4,21.46,6,41.43,6.05,41.63a1,1,0,0,1-.89,1.09Z"></path><path class="cls-3" d="M87.21,304a1,1,0,0,1-1-.87c-.06-.48-6.16-48.34-10.11-66.59a1,1,0,0,1,2-.42c4,18.33,10.08,66.27,10.14,66.75a1,1,0,0,1-.87,1.12Z"></path><path class="cls-3" d="M49.84,303.5a1,1,0,0,1-.45-.1,1,1,0,0,1-.51-1.18c.1-.61.39-4.89.74-9.85,1.41-20.57,3.06-42.86,4.66-47a1,1,0,0,1,1.87.72c-1.63,4.19-3.52,31.65-4.54,46.4-.69,10.07-.71,10.11-.88,10.44A1,1,0,0,1,49.84,303.5Z"></path><path class="cls-3" d="M62.71,302.88a1,1,0,0,1-1-.75c-2.56-9.82-7.83-33.17-7.89-33.41a1,1,0,0,1,2-.44c0,.24,5.31,23.56,7.86,33.34a1,1,0,0,1-.71,1.22A1.17,1.17,0,0,1,62.71,302.88Z"></path><path class="cls-3" d="M81.17,260.17a1.07,1.07,0,0,1-.56-.17,1,1,0,0,1-.27-1.39l4.25-6.31c.07-.13.24-.38.44-.67a5.81,5.81,0,0,0,1.37-4.06,21.71,21.71,0,0,0-1-4.16,24.89,24.89,0,0,1-1.18-5.22,48.65,48.65,0,0,1,.13-8.18,1,1,0,1,1,2,.23,49.57,49.57,0,0,0-.12,7.82,23.1,23.1,0,0,0,1.11,4.77,23.93,23.93,0,0,1,1.08,4.57,7.81,7.81,0,0,1-1.73,5.38c-.15.21-.28.39-.37.55l-4.3,6.4A1,1,0,0,1,81.17,260.17Z"></path><path class="cls-3" d="M80.34,253.75a1,1,0,0,1-.43-.1,1,1,0,0,1-.47-1.33l2.33-4.92a1,1,0,0,1,1.81.86l-2.34,4.92A1,1,0,0,1,80.34,253.75Z"></path><path class="cls-3" d="M37,141a8.9,8.9,0,0,1-8.3-5.05,7.23,7.23,0,0,1-7.27-10.22,7.23,7.23,0,0,1-3.43-11,7.21,7.21,0,0,1,1-9.5,9,9,0,0,1,4-11.3,8.86,8.86,0,0,1,2.78-6,10.74,10.74,0,0,1,7.32-3,8.6,8.6,0,0,1,3.84-5,9.72,9.72,0,0,1,8.3-.72c3.65-2.81,8.17-2.75,12.28.17A8.76,8.76,0,0,1,68,82.77,13.44,13.44,0,0,1,77.39,92a7.28,7.28,0,0,1,3.48,8.23,10.42,10.42,0,0,1,1.59,9.66,7.68,7.68,0,0,1,1.38,4.37,7.53,7.53,0,0,1-2.92,6,7.6,7.6,0,0,1-7.33,9.53l-.46,0a1,1,0,0,1-.94-1.06,1,1,0,0,1,1.06-.94l.34,0a5.59,5.59,0,0,0,5.58-5.58,5.48,5.48,0,0,0-.37-2,1,1,0,0,1,.41-1.2,5.58,5.58,0,0,0,1.35-8.29,1,1,0,0,1-.16-1,8.46,8.46,0,0,0-1.4-8.61,1,1,0,0,1-.19-1,5.26,5.26,0,0,0-2.71-6.53,1,1,0,0,1-.54-.66,11.4,11.4,0,0,0-8.47-8.36,1.06,1.06,0,0,1-.64-.47,6.75,6.75,0,0,0-8.7-2.75,1,1,0,0,1-1-.12c-3.65-2.81-7.54-2.89-10.67-.22a1,1,0,0,1-1,.18c-3.4-1.21-5.75-.47-7.12.36a6.52,6.52,0,0,0-3.08,4.46,1,1,0,0,1-1,.87,8.79,8.79,0,0,0-6.68,2.42A6.85,6.85,0,0,0,25,94.47a1,1,0,0,1-.54.93c-1,.52-6,3.44-3.33,9.74a1,1,0,0,1-.33,1.19,5.23,5.23,0,0,0-.78,7.72,1,1,0,0,1,0,1.33,5.23,5.23,0,0,0,3.09,8.68,1,1,0,0,1,.77.6,1,1,0,0,1-.11,1,5.24,5.24,0,0,0,5.38,8.19,1,1,0,0,1,1.17.69c1.09,3.64,5.47,5.09,8.88,4.16a6.51,6.51,0,0,0,2.78-1.5,1,1,0,0,1,1.36,1.47,8.49,8.49,0,0,1-3.62,2A10.22,10.22,0,0,1,37,141Z"></path><path class="cls-3" d="M46.06,120.15a1,1,0,0,1-.3,0,30.21,30.21,0,0,1-5.58-2.45,1,1,0,1,1,1-1.72,27,27,0,0,0,4.44,2,11.21,11.21,0,0,0,1.54-7.06,1,1,0,0,1,.44-1,1,1,0,0,1,1.06,0,4.28,4.28,0,0,0,3.53.12,4.41,4.41,0,0,0,2.72-2.48,1,1,0,0,1,1.52-.48,6.52,6.52,0,0,0,3.54,1.1,4.24,4.24,0,0,0,3.69-2.27,1,1,0,0,1,1.68.07A4.71,4.71,0,0,0,72,107.68a1,1,0,0,1,1,1.75,6.66,6.66,0,0,1-8.48-1.31,5.91,5.91,0,0,1-4.29,2,8.07,8.07,0,0,1-3.9-.87,6.71,6.71,0,0,1-3.41,2.62,6.81,6.81,0,0,1-3.6.32,13.39,13.39,0,0,1-2.43,7.54A1,1,0,0,1,46.06,120.15Z"></path></g><g id="Leo"><path class="cls-10" d="M232.36,289.51h5.95a10.7,10.7,0,0,0,10.08-7.13l8-22.77a28.4,28.4,0,0,0,1.62-9.45V235.75a6.08,6.08,0,0,0-6.08-6.08H239.78a12.17,12.17,0,0,0-12.17,12.17v42.93A4.75,4.75,0,0,0,232.36,289.51Z"></path><path class="cls-3" d="M238.31,290.51h-5.95a5.75,5.75,0,0,1-5.75-5.74V241.84a13.19,13.19,0,0,1,13.17-13.17H252a7.09,7.09,0,0,1,7.08,7.08v14.41a29.45,29.45,0,0,1-1.67,9.79l-8,22.76A11.71,11.71,0,0,1,238.31,290.51Zm1.47-59.84a11.19,11.19,0,0,0-11.17,11.17v42.93a3.75,3.75,0,0,0,3.75,3.74h5.95a9.72,9.72,0,0,0,9.14-6.46l8-22.77a27.23,27.23,0,0,0,1.56-9.12V235.75a5.09,5.09,0,0,0-5.08-5.08Z"></path><path class="cls-8" d="M231.8,289.51h0A11.29,11.29,0,0,0,242.44,282l7.9-22.37a28.4,28.4,0,0,0,1.62-9.45V235.75a6.09,6.09,0,0,0-6.09-6.08H234.71a14.2,14.2,0,0,0-14.2,14.2v34.36A11.29,11.29,0,0,0,231.8,289.51Z"></path><path class="cls-10" d="M231.19,288.91c2.06-.22,4.59-2.42,6.18-6.93l7.9-22.37a28.39,28.39,0,0,0,1.61-9.45V236.5a5.92,5.92,0,0,0-5.78-6.18H235c-7.84,0-14.5,5.71-14.5,13.55v34.36C220.51,288.46,231.19,288.91,231.19,288.91Z"></path><path class="cls-3" d="M234.71,248.93a6.08,6.08,0,1,1,6.07-6.07A6.09,6.09,0,0,1,234.71,248.93Zm0-10.15a4.08,4.08,0,1,0,4.07,4.08A4.08,4.08,0,0,0,234.71,238.78Z"></path><path class="cls-10" d="M171.72,289.51h-5.95a10.7,10.7,0,0,1-10.09-7.13l-8-22.77a28.4,28.4,0,0,1-1.62-9.45V235.75a6.08,6.08,0,0,1,6.09-6.08h12.17a12.17,12.17,0,0,1,12.17,12.17v42.93A4.74,4.74,0,0,1,171.72,289.51Z"></path><path class="cls-3" d="M171.72,290.51h-5.95a11.71,11.71,0,0,1-11-7.8l-8-22.76a29.21,29.21,0,0,1-1.68-9.79V235.75a7.1,7.1,0,0,1,7.09-7.08h12.17a13.19,13.19,0,0,1,13.17,13.17v42.93A5.75,5.75,0,0,1,171.72,290.51Zm-19.6-59.84a5.09,5.09,0,0,0-5.09,5.08v14.41a27.23,27.23,0,0,0,1.56,9.12l8,22.77a9.7,9.7,0,0,0,9.14,6.46h5.95a3.75,3.75,0,0,0,3.74-3.74V241.84a11.18,11.18,0,0,0-11.17-11.17Z"></path><path class="cls-8" d="M172.27,289.51h0A11.29,11.29,0,0,1,161.63,282l-7.9-22.37a28.39,28.39,0,0,1-1.61-9.45V235.75a6.08,6.08,0,0,1,6.08-6.08h11.16a14.2,14.2,0,0,1,14.2,14.2v34.36A11.28,11.28,0,0,1,172.27,289.51Z"></path><path class="cls-10" d="M172.88,288.91c-2.06-.22-4.59-2.42-6.18-6.93l-7.89-22.37a28.15,28.15,0,0,1-1.62-9.45V236.5a5.94,5.94,0,0,1,5.79-6.2h6.08c7.85,0,14.5,5.73,14.5,13.57v34.36C182.08,289.68,172.88,288.91,172.88,288.91Z"></path><path class="cls-3" d="M169.36,248.93a6.08,6.08,0,1,1,6.07-6.07A6.08,6.08,0,0,1,169.36,248.93Zm0-10.15a4.08,4.08,0,1,0,4.07,4.08A4.08,4.08,0,0,0,169.36,238.78Z"></path><path class="cls-3" d="M172.27,290.51a12.29,12.29,0,0,1-11.58-8.19L152.79,260a29.45,29.45,0,0,1-1.67-9.79V235.75a7.09,7.09,0,0,1,7.08-7.08h11.16a15.22,15.22,0,0,1,15.2,15.2v34.36A12.3,12.3,0,0,1,172.27,290.51ZM158.2,230.67a5.09,5.09,0,0,0-5.08,5.08v14.41a27.23,27.23,0,0,0,1.56,9.12l7.89,22.37a10.29,10.29,0,0,0,20-3.42V243.87a13.21,13.21,0,0,0-13.2-13.2Z"></path><path class="cls-3" d="M231.8,290.51a12.3,12.3,0,0,1-12.29-12.28V243.87a15.22,15.22,0,0,1,15.2-15.2h11.16a7.1,7.1,0,0,1,7.09,7.08v14.41a29.37,29.37,0,0,1-1.68,9.79l-7.89,22.37A12.32,12.32,0,0,1,231.8,290.51Zm2.91-59.84a13.21,13.21,0,0,0-13.2,13.2v34.36a10.29,10.29,0,0,0,20,3.42l7.89-22.37a27.2,27.2,0,0,0,1.57-9.12V235.75a5.09,5.09,0,0,0-5.09-5.08Z"></path><path class="cls-8" d="M235.46,263.69H168.25a6.92,6.92,0,0,1-6.92-6.92V232.45a12.37,12.37,0,0,1,12.37-12.37H230a12.37,12.37,0,0,1,12.37,12.37v24.32A6.92,6.92,0,0,1,235.46,263.69Z"></path><path class="cls-3" d="M235.46,264.69H168.25a7.93,7.93,0,0,1-7.92-7.92V232.45a13.38,13.38,0,0,1,13.37-13.37H230a13.38,13.38,0,0,1,13.37,13.37v24.32A7.93,7.93,0,0,1,235.46,264.69ZM173.7,221.08a11.38,11.38,0,0,0-11.37,11.37v24.32a5.93,5.93,0,0,0,5.92,5.92h67.21a5.93,5.93,0,0,0,5.92-5.92V232.45A11.38,11.38,0,0,0,230,221.08Z"></path><rect class="cls-10" x="169.17" y="263.69" width="65.77" height="8.11" rx="2.03"></rect><path class="cls-3" d="M232.91,272.81H171.2a3,3,0,0,1-3-3v-4.06a3,3,0,0,1,3-3h61.71a3,3,0,0,1,3,3v4.06A3,3,0,0,1,232.91,272.81Zm-61.71-8.12a1,1,0,0,0-1,1v4.06a1,1,0,0,0,1,1h61.71a1,1,0,0,0,1-1v-4.06a1,1,0,0,0-1-1Z"></path><path class="cls-16" d="M216.25,240.81l-10.38-10.4a2.83,2.83,0,0,0-4,0l-10.37,10.4a2.82,2.82,0,0,0,0,4l6.93,6.94a4.85,4.85,0,0,0,3.43,1.43h4a4.88,4.88,0,0,0,3.44-1.43l6.93-6.94A2.84,2.84,0,0,0,216.25,240.81Zm-17.66,3a1.4,1.4,0,0,1-2-2l6.19-6.21a1.4,1.4,0,1,1,2,2Zm6.26,6.27a1.41,1.41,0,0,1-2,0,1.41,1.41,0,1,1,2,0Zm0-6.29-3.15,3.16a1.4,1.4,0,0,1-2-2l3.15-3.16a1.4,1.4,0,0,1,2,2Z"></path><circle class="cls-17" cx="179.54" cy="230.22" r="2.03"></circle><circle class="cls-3" cx="185.63" cy="230.22" r="2.03"></circle><rect class="cls-12" x="169.7" y="271.92" width="31.18" height="32.35" rx="8.74"></rect><path class="cls-3" d="M192.14,305.26H178.43a9.74,9.74,0,0,1-9.73-9.73V280.65a9.75,9.75,0,0,1,9.73-9.73h13.71a9.75,9.75,0,0,1,9.74,9.73v14.88A9.74,9.74,0,0,1,192.14,305.26Zm-13.71-32.34a7.74,7.74,0,0,0-7.73,7.73v14.88a7.74,7.74,0,0,0,7.73,7.73h13.71a7.74,7.74,0,0,0,7.74-7.73V280.65a7.74,7.74,0,0,0-7.74-7.73Z"></path><path class="cls-3" d="M197.21,290.06H173.13a1,1,0,0,1,0-2h24.08a1,1,0,0,1,0,2Z"></path><path class="cls-3" d="M194.64,281.94H175.7a1,1,0,0,1,0-2h18.94a1,1,0,0,1,0,2Z"></path><path class="cls-3" d="M194.64,298.17H175.7a1,1,0,0,1,0-2h18.94a1,1,0,0,1,0,2Z"></path><rect class="cls-12" x="203.94" y="271.92" width="31.18" height="32.35" rx="8.74"></rect><path class="cls-3" d="M226.38,305.26H212.67a9.73,9.73,0,0,1-9.73-9.73V280.65a9.74,9.74,0,0,1,9.73-9.73h13.71a9.75,9.75,0,0,1,9.74,9.73v14.88A9.74,9.74,0,0,1,226.38,305.26Zm-13.71-32.34a7.74,7.74,0,0,0-7.73,7.73v14.88a7.74,7.74,0,0,0,7.73,7.73h13.71a7.74,7.74,0,0,0,7.74-7.73V280.65a7.74,7.74,0,0,0-7.74-7.73Z"></path><path class="cls-3" d="M231.45,290.06H207.37a1,1,0,0,1,0-2h24.08a1,1,0,0,1,0,2Z"></path><path class="cls-3" d="M228.88,281.94H209.94a1,1,0,0,1,0-2h18.94a1,1,0,0,1,0,2Z"></path><path class="cls-3" d="M228.88,298.17H209.94a1,1,0,0,1,0-2h18.94a1,1,0,0,1,0,2Z"></path><path class="cls-8" d="M241.4,192.18h6.1a3,3,0,0,0,3-3V177a3,3,0,0,0-3-3h-6.1"></path><path class="cls-8" d="M163.4,192.18h-5a3,3,0,0,1-3-3V177a3,3,0,0,1,3-3h4.27Z"></path><rect class="cls-8" x="161.28" y="153.13" width="83.17" height="59.84" rx="29.92"></rect><path class="cls-10" d="M220.62,208.92H197.29A28.94,28.94,0,0,1,168.38,180a29.63,29.63,0,0,1,13.08-24.58c-11.16,4-20.18,15.1-20.18,27.63,0,15.94,13.93,30.17,29.87,30.17l23.76-.11c5.84,0,11.68-2.9,16.24-5.89A33.61,33.61,0,0,1,220.62,208.92Z"></path><path class="cls-3" d="M214.53,214H191.21a30.93,30.93,0,1,1,0-61.85h23.32a30.93,30.93,0,1,1,0,61.85Zm-23.32-59.85a28.93,28.93,0,1,0,0,57.85h23.32a28.93,28.93,0,1,0,0-57.85Z"></path><rect class="cls-15" x="176.5" y="164.29" width="54.77" height="19.27" rx="9.64"></rect><path class="cls-3" d="M221.63,184.56h-35.5a10.64,10.64,0,0,1,0-21.27h35.5a10.64,10.64,0,1,1,0,21.27Zm-35.5-19.27a8.64,8.64,0,0,0,0,17.27h35.5a8.64,8.64,0,1,0,0-17.27Z"></path><path class="cls-3" d="M215.89,187.62a2,2,0,0,1,2,2.37,15.22,15.22,0,0,1-30.06,0,2,2,0,0,1,2-2.37Z"></path><path class="cls-10" d="M205.36,199.52a7.09,7.09,0,0,0-12-4.31,12.18,12.18,0,0,0,9.51,4.58A12,12,0,0,0,205.36,199.52Z"></path><path class="cls-3" d="M247.5,193.18h-1a1,1,0,1,1,0-2h1a2,2,0,0,0,2-2V177a2,2,0,0,0-2-2h-1a1,1,0,1,1,0-2h1a4,4,0,0,1,4,4v12.17A4,4,0,0,1,247.5,193.18Z"></path><path class="cls-3" d="M253.58,184.06h-3a1,1,0,0,1,0-2h3a1,1,0,0,1,0,2Z"></path><circle class="cls-8" cx="256.63" cy="183.06" r="3.04"></circle><path class="cls-3" d="M256.63,187.1a4,4,0,1,1,4-4A4.05,4.05,0,0,1,256.63,187.1Zm0-6.09a2,2,0,1,0,2,2.05A2.05,2.05,0,0,0,256.63,181Z"></path><path class="cls-3" d="M159.46,193.18h-1a4,4,0,0,1-4-4V177a4,4,0,0,1,4-4h1a1,1,0,0,1,0,2h-1a2,2,0,0,0-2,2v12.17a2,2,0,0,0,2,2h1a1,1,0,0,1,0,2Z"></path><path class="cls-3" d="M155.41,184.06h-3a1,1,0,0,1,0-2h3a1,1,0,1,1,0,2Z"></path><circle class="cls-8" cx="149.32" cy="183.06" r="3.04"></circle><path class="cls-3" d="M149.32,187.1a4,4,0,1,1,4-4A4,4,0,0,1,149.32,187.1Zm0-6.09a2,2,0,1,0,2,2.05A2,2,0,0,0,149.32,181Z"></path><path class="cls-3" d="M196,176.94a1,1,0,0,1-1-1,4.27,4.27,0,1,0-8.53,0,1,1,0,0,1-2,0,6.27,6.27,0,1,1,12.53,0A1,1,0,0,1,196,176.94Z"></path><path class="cls-3" d="M222.26,176.94a1,1,0,0,1-1-1,4.27,4.27,0,1,0-8.53,0,1,1,0,0,1-2,0,6.27,6.27,0,1,1,12.53,0A1,1,0,0,1,222.26,176.94Z"></path></g><g id="hands"><path class="cls-10" d="M224.4,152c-.16.13-1.16,1-1.18.85-.38-1.92-2.22-2.62-3.89-1.23a4.08,4.08,0,0,0-.32.38h0a2.16,2.16,0,0,0-1.44-2,2.66,2.66,0,0,0-2.54.63,3,3,0,0,0-3.78-.16,25.16,25.16,0,0,0-3.28,5.72c-.25.67.09,2.84,1.76,2.62h0a2.27,2.27,0,0,0,1.73-1.24s.21.39.45.76a1.76,1.76,0,0,0,1.45.81l1.13,0c.64,0,2.08,1.34,3.09,1.1a17.77,17.77,0,0,0,1.69-.67,3.66,3.66,0,0,0,2.06,1.22,2.07,2.07,0,0,0,2.19-.61l3.28-3.82h2.52a1,1,0,0,0,1-1.05,1.86,1.86,0,0,0-.13-.7C229.92,153.92,225.7,151,224.4,152Z"></path><path class="cls-8" d="M175.44,153.6c.17.12,1.18,1,1.21.81.33-1.92,2.16-2.67,3.85-1.3a2,2,0,0,1,.33.36h0a2.17,2.17,0,0,1,1.4-2.06,2.67,2.67,0,0,1,2.55.57,3,3,0,0,1,3.78-.24,25.16,25.16,0,0,1,3.41,5.64c.26.66,0,2.84-1.7,2.66h0a2.28,2.28,0,0,1-1.77-1.2s-.19.4-.42.77a1.76,1.76,0,0,1-1.44.84l-1.12,0c-.65.07-2.06,1.39-3.07,1.17a17.91,17.91,0,0,1-1.7-.63,3.67,3.67,0,0,1-2,1.26,2.06,2.06,0,0,1-2.21-.56l-3.32-3.7-2.5,1.87c-.58,0,1.26-6.34,1.35-6.53C172.34,152.66,174.13,152.62,175.44,153.6Z"></path><path class="cls-8" d="M170.59,163.14c-1-.4-4.61-1.73-6.09.65a2.6,2.6,0,0,0,.46,3.68c.68.57,3.29.58,4.89.52a2.22,2.22,0,0,0,2-1.36C172.3,165.5,172.49,163.93,170.59,163.14Z"></path><path class="cls-3" d="M213.87,158a.79.79,0,0,1-.65-.37c-.08-.12-.3-.46.34-1.57.33-.54.62-1.11.93-1.67.44-.83.89-1.68,1.42-2.48s1-1.07,1.6-.87a1,1,0,0,0,.66-1.89,2.89,2.89,0,0,0-2.29.14,3.93,3.93,0,0,0-4.78.08c-.85.72-3,4.6-3.51,6.08a3.17,3.17,0,0,0,.36,2.7,2.43,2.43,0,0,0,2,1.06h0a1,1,0,0,0,1-1,1,1,0,0,0-1-1,.44.44,0,0,1-.43-.19,1.26,1.26,0,0,1-.13-.89,26.38,26.38,0,0,1,2.92-5.23,1.74,1.74,0,0,1,1.93-.19l-.09.11c-.57.87-1,1.76-1.51,2.63-.29.54-.57,1.08-.88,1.6s-1.28,2.18-.29,3.68a2.78,2.78,0,0,0,2.26,1.26h0a1,1,0,0,0,0-2Z"></path><path class="cls-3" d="M229,152l-.11-.09a5.05,5.05,0,0,0-5.12-.63,1.48,1.48,0,0,0-.13-.21,3.69,3.69,0,0,0-4.94-.15c-.95.8-2.66,4.61-3.16,5.75a3.41,3.41,0,0,0,0,3.37,2.38,2.38,0,0,0,2,.93l.4,0a1,1,0,0,0,.89-1.1,1,1,0,0,0-1.09-.89c-.36,0-.57,0-.62-.1s-.14-.63.19-1.39a27.21,27.21,0,0,1,2.62-5,1.68,1.68,0,0,1,2.21,0l.08.05-.15.23c-.75,1.15-2,3.08-2.86,4.53a2.93,2.93,0,0,0,1.82,4.46,3.57,3.57,0,0,0,.9.11,2.91,2.91,0,0,0,2.33-1.07l3.12-3.87a1,1,0,1,0-1.56-1.26l-3.14,3.91a1.1,1.1,0,0,1-1.14.24,1,1,0,0,1-.73-.56,1.1,1.1,0,0,1,.12-1c.82-1.4,2.07-3.31,2.81-4.44l.26-.39a.82.82,0,0,1,.13-.12,2.92,2.92,0,0,1,3.43.12l.11.09c.88.72,1.79,1.46,1.91,2.26a1,1,0,0,0,2-.31C231.37,153.92,230.1,152.88,229,152Z"></path><path class="cls-3" d="M188.68,150.62a3.93,3.93,0,0,0-4.78,0,2.87,2.87,0,0,0-2.3-.09,1,1,0,1,0,.71,1.87c.55-.21,1.1.07,1.62.83s1,1.64,1.48,2.45c.32.56.63,1.11,1,1.65.67,1.09.46,1.43.38,1.56a.75.75,0,0,1-.64.38,1,1,0,0,0,0,2h.06a2.76,2.76,0,0,0,2.22-1.32c1-1.52,0-3.14-.37-3.67s-.61-1-.92-1.58c-.48-.85-1-1.73-1.57-2.6a.76.76,0,0,0-.08-.11,1.73,1.73,0,0,1,1.92.15,26.64,26.64,0,0,1,3.05,5.17,1.29,1.29,0,0,1-.11.89.48.48,0,0,1-.43.2,1,1,0,0,0,0,2h0a2.46,2.46,0,0,0,2-1.11,3.2,3.2,0,0,0,.3-2.71C191.76,155.15,189.55,151.32,188.68,150.62Z"></path><path class="cls-3" d="M181.13,152.33a3.68,3.68,0,0,0-4.93.26,1.19,1.19,0,0,0-.09.15,4.08,4.08,0,0,0-5.27.63c-.73.76-1.12,2.67-1.68,5.72-.17.92-.36,1.92-.5,2.44-2.25-.39-4,.2-5,1.73a3.6,3.6,0,0,0,.67,5c.29.24.92.77,4.27.77.4,0,.83,0,1.29,0a3.23,3.23,0,0,0,2.9-2c.86-2.17.19-4-1.81-4.78-.13-.06-.25-.09-.39-.14.16-.58.33-1.44.54-2.63.27-1.47.78-4.21,1.16-4.69.92-1,2.07-.93,3.42.11l.13.11.26.39c.77,1.12,2.06,3,2.91,4.37a1.08,1.08,0,0,1,.15.95,1,1,0,0,1-.72.58,1,1,0,0,1-1.16-.25l-3.22-3.8a1,1,0,1,0-1.52,1.29l3.18,3.78a3,3,0,0,0,2.31,1,3.33,3.33,0,0,0,1-.14,3,3,0,0,0,2-1.77,3,3,0,0,0-.31-2.72c-.87-1.43-2.18-3.33-3-4.46l-.16-.23.08,0a1.69,1.69,0,0,1,2.21-.08,27.28,27.28,0,0,1,2.74,5c.34.74.32,1.24.22,1.38s-.26.14-.61.11a1,1,0,0,0-.16,2h.32a2.42,2.42,0,0,0,2.1-1,3.4,3.4,0,0,0-.06-3.36C183.89,156.87,182.1,153.1,181.13,152.33Zm-10.21,13.92a1.19,1.19,0,0,1-1.1.74c-2.82.1-4-.15-4.22-.29a1.61,1.61,0,0,1-.25-2.38,2.19,2.19,0,0,1,2-.91,8.31,8.31,0,0,1,2.87.66C170.92,164.36,171.49,164.83,170.92,166.25Z"></path></g></svg> 